<?xml version="1.0" encoding="UTF-8"?>
<svg id="Layer_2" data-name="Layer 2" xmlns="http://www.w3.org/2000/svg" viewBox="0 0 277.84 125.35">
  <defs>
    <style>
      .cls-1 {
        fill: #ef25d3;
      }
    </style>
  </defs>
  <g id="Layer_2-2" data-name="Layer 2">
    <path class="cls-1" d="M24.27,19.69s.03,1.06-1.08,2.5c0,2.19-.25,8.64-.25,8.64,0,0,3.31.19,3.75-.11s1.58-.92,3.31-1,4.33-3.14,4.44-3.56c-.94-.06-.33-.33-.33-.33,0,0-.17-1.06-.31-1.67s.74-2.06.87-3.06.47-14.46-.35-16.7-1.38-1.4-1.38-1.4c0,0,.06-.65-.39-.96s-5.62-1.4-7.28-1.14c-.2.12-.28.33-.28.33l-.35-.37-1.82.08s-.08.26-.89.31-.93-.44-.93-.44h-6.23l-1.85.05-.78-.59-3.94-.27L1.17,6.18l-.12,1.72.14.53-.69-.73-.49,25.46.24.58.17,4.6s.85.53.4,1.76-.46,3.85-.46,3.85c0,0-.26,3.56-.12,4.94s.32,4.96.15,5.96.1,5.03.39,5.67.15,2.26.15,2.26l.28,4.09.12.55s-.87.14-.85.51.17,3.28.17,3.28l.68.08-.53.36.15,1.58.43.36-.29.53.19,12.56s0,.68,1.75,2.22,1.76,1.86,1.76,1.86l.19-.46s.28,2.96.54,3.99,2.94,3.22,4.19,3.17,1.85-.1,1.85-.1l.07.6s1.97.85,5.18.31,6.21-1.47,8.87-4.08,3.78-3.67,3.78-3.67l.08-.83.71.08,2.18-3.81s-1.06.01-.94-1.38.4-1.9.38-3.46-.32-1.82-.32-1.82l.17-.76.03-4.03.26-6.47v-4.64s-.23-.24-.23-.24l.31-1.14-.6-.46-.28.15s-.19.03-.34.42-.7,3.32-1.36,4.07-2.17,5.42-2.19,5.47-1.13,5.62-1.48,6.08-.44.98-.44.98h-.21s-.63,1.84-1.8,2.76-2.4,5.95-7.04,5.64c-3.99-.3-3.61-11.25-3.61-11.25l-.26-.35.08-4.16-.08-2.76-.27-.51.22-2.03-.71-5.51.17-4.94.1-6.95-.36-3.02.18-2.16-.21-5.81.18-3.99-.41-.28.56-.84.37-7.7-1.19-2.92.89-1.44s.31-4.82.88-5.58.72-.85.72-.85l-.18-.21s1.39-3.1,3.93-4.27,3.52.28,3.72.65.52.8.52.8l-.22-.08s.8,1.41.89,1.98.86,1.75.84,2.19.29,2.73.51,2.92.28.33.28.33l-.22.35.15.92.49.03Z"/>
    <path class="cls-1" d="M72.76,86.61c-2.14-1.44-1.92-3.47-1.92-3.47l-.36-.81.36-.58-.42-.58-.33-5.61-.97-2.17.47.14-.47-6.33s-.56-1.28-.42-2.42c.14-1.14-.94-7.31-1.33-8.36-.39-1.06,0-4.94,0-4.94l-.72-1.03-.53-4.89-.19-1.98-.67-2.8.23-.46v-1.44s-.42-.42-.72-1.06c-.31-.64.31-.97.31-.97l-.14-4.83-1.17-2.28.58.28-.22-2.36s-.95-3.68-.95-3.7-.55-2.42-.55-2.42c0,0,.12.18.22,0,.1-.18-.27-3.4-.27-3.4l-.25.1-.18-1.53-1.22-4.14-.36-3.96-.96-1.63-.63-.62.43-.11.71.75-.26-1.4.55-1.41-.08-.35-.89-.13v-.42l.24-.05.04.19.37.12.32-.31-1.25-1.57-.91-.26-.87.2h-.52l.1-.27-1.6-.02s-1.36.24-2.19.23c-.83,0-.34-.42-.34-.42l-2.23-.2-.91.35-1.09-.07v-.25l-4.17-.02c1.44.57,2.22,1.8,2.22,1.8l.55-.5-.26.64c.19.19.36,1.25.36,1.25l.35.06s-.08.4.49,1.43.18,2.9.17,3.69c-.01.79-.72,4.78-.72,4.78,0,0,.36.89-.22,1.83s-.93,4.64-.88,5.76-.68,4.94-.68,4.94c0,0-.4,3.51-.35,3.57s.35-.51.25.25-.69,1.85-1,2.56c-.31.71-.93,4.75-.86,5.44.07.69-.18,3.97-.4,4.43-.22.46-.74,3.44-.74,3.44l.46-.18-.75,1.07-.31,4.12-.18-.12-.22,2.08s.38.49.46.69c.08.21-.39-.1-.39-.1l.1,1.25-.53.11s-.22,1.64-.35,2.26-.53,1.26-.49,1.76-.21,1.35-.21,1.35c0,0-.14,1.68-.14,1.72s-.03,1.18.24,1.47c-.28.1-.71,1.14-.71,1.14,0,0,.14.5-.22,1.92-.36,1.42-.35,2.75-.36,3.29-.01.54.03.75.18.85s-.04.19-.24.19-.33,1.22-.33,1.22l-.08-.21s-.22,1.43-.19,1.88-.54,2.22-.67,2.96c-.12.74-.07,2.71-.17,3.61s-.61.76-.57,1.18-.14,1.68-.25,2.31c-.11.62-.08.89-.01,1.42.07.53-.81,1.46-1,1.81-.19.35.01.67.01.67,0,0-.32.25-.4.61-.08.36-1.28,2.4-1.5,3.03s.1.6.36.62c.26.03,2.14-.06,2.28-.07.14-.01.08-.31.18-.26s2.12-.14,2.12-.14c0,0,.19-.32.31-.25.11.07,1.47-.21,1.47-.21,0,0,1.04-.21,1.18-.11.14.1,3.56-.35,3.69-.35s.43-.44.43-.44c0,0,1-.18,1.11-.12.11.06.01.31.01.31,0,0,.94.03,2.39-.06-.33-.07-1.28-1.47-1.39-1.85-.11-.38.07-1.18-.1-1.56-.17-.38-1.31-1.08-1.44-1.94-.14-.86.12-1.62.26-3.03s-.14-1.08-.14-1.08c0,0-.1-.89.32-2.79.42-1.9.23-3.98.23-3.98l-.18.06-.03-1.07.25.06.06-.86.9-1.71.31-3.67s.06-1.11-.39-1.24c.4-.07,1.12-1.24,1.35-1.75.22-.51-.46-2.64.46-2.89.92-.25,4.79-1.9,4.79-1.9,0,0-.38-.01.44-.39s2.65-.67,3.56.08c.9.75.56,2.36.57,3.54.01,1.18.33,1.1.4,1.17.07.07.04.54.07.74s-.47-.42-.47-.21.07,3.38.07,3.38c0,0,.17.12.46.35.29.22-.46,1.14-.57,1.33-.11.19.35.49.35.49l-.03.93.58,1.49-.35-.03.47,1.21-.25.11s-.03,6.39-.47,9.56-1.92,4.25-1.92,4.25l-.42,1.86,15.58-.31s.17-1.53,0-2.31ZM57.57,47.86c.21.68.04,1.38.1,2.04s-1.25.36-1.4.39c-.15.04-.06.35-.06.35l-.23.06s-.19-.03-.2.1c-.07.59-.07.71-.4.69-.33-.02-.07,0-.14-.11-.06-.1-1.33.42-1.62.35-.29-.06-1.58,0-1.58,0l-1.19.44-.18.1.14-1.57.22-.18s.03-.71.04-.97c.01-.26.58-2.18.58-2.18,0,0-.08-2.76.08-3.01.17-.25.12-3.38.12-3.38l.37-1.53.56-1.89s-.05-2.91-.04-3.31c.32-.24.59-3.59.59-3.59l.94-5.16s.22,0,.34.15,1.09,2.06,1.07,3.19c-.02,1.12.23.96.23.96l.4,2.55-.09.46-.08,1.8.65.35-.24.08-.09.61v1.42s.17.97.36,1.24c.2.27.05,1.61,0,1.99-.05.38.62,1.5.62,1.5,0,0-.65.05-.75.05s-.1,2.44-.1,2.44l.79,1.25.71,1.23s-.74.41-.53,1.08Z"/>
    <path class="cls-1" d="M92.41,17.02s4.83,9.24,4.99,9.26.39-9.26.39-9.26c0,0-.42-.19-.42-.99s.17-.54.11-1.01.08-.51.1-.44.31.44.33.28-.04-1.39.1-2.37.32-2.1.33-2.71,0-2.54,0-2.54l-.17.07s.35-1.75.28-2.18-.29-.76-.29-.76c0,0,.31-1.32.15-2.01s-.65-.9-1.25-.99-2.44.01-2.67-.06-.47.24-.47.24c0,0-.86.21-1.1.11s-1.04-.33-1.24-.36-.85-.12-.85-.12v-.22h-1.11l-1.1-.41s-2.05.25-2.56.25-2.04-.32-2.21-.25-.24.32-.9.32-1.93-.15-1.93-.15l.17.17-3.21.2s-1.28.92-1.94,1.03-2.68.38-3.26,2.05-.27,3.12-.27,3.12l.24.76-.06.42-.26-.49s.02,1.67.05,1.67.09,2.24.09,2.24l.55.12-.71-.05s.41,1.6.26,2.02l-.35-.19s-.41,2.62-.3,2.94c.2.01.19.16.19.16,0,0-.35.2-.35.56s-.35.59-.21.94.26.48.26.48c0,0-.02.5-.14.71s-.02,1.44-.02,1.44l.15,1.21-.09,1.44s.05,1.48.44,1.84l-.41.23s.03.81.04.84.27.78.27.78c0,0,.1.71.28,1.05s.86,1.07.98,1.75,1.12,1.93,1.12,1.93l.49.28s.22,1.46.16,1.74,1.09,1.21,1.34,1.82,1.87,2.08,2.19,2.01.23.38.23.38c0,0-.34.11-.42-.06.15.51,1.92,3.01,1.92,3.01l.96,1.02.56.22.11.62,1.05,1.1-.33-.16s-.32.21-.54-.19c.28.81,2.2,2.39,2.3,2.39s.03.22.03.22l-.35.27,1.39,1.71,2.96,2.67.73.85h-.62s.87.83.73,1.06-.27.9-.04,1.44.56.56.71,1.04.25,1.12.21,1.4.29.71.29.71c0,0-.08.94-.04,1.48s.81.58.81.58l-.06.29h-.25s-.15,1.69.02,1.88c-.5-.48-.58-.38-.58-.38,0,0,.17,1.02.15,1.42s.15,1.17.04,1.33-.04,1.17.33,1.29-.21.19-.21.19c0,0-.04,1.81.1,2.67s-.35,2.33-.58,2.52-.33.96-.33.96l-.29.25.44.88-.58.19-.02,1.19-.31.17-.02,1.54s-1.44,2.1-2.1,2.42c-.27.56-.42,1.1-.42,1.1l-.77-1s-.52.77-.79.27-1.73-.77-1.96-.87c.08-.25-.13-.65-.13-.65,0,0,.19-.67.11-.95s-.36-.82-.36-.82c0,0-.02-1.93.03-1.98s.14.24.14.24c0,0,.19-2.49.12-2.91s-.24-.52-.24-.52c0,0-.01.28-.01.23s-.11-.91-.05-1.41c-.08-.26-.27-.27-.27-.27,0,0-.22-1.47.01-1.94s-.34-1.93-.34-1.93c0,0-.76-1.3-.78-2.12s-1.09-3.51-1.61-4.07-.71-.9-.85-1.5-1.31-2.31-1.31-2.31l-1.52-.65-.4.79s.5.75.71,1.54.25,2.08.21,2.29.62.67.62.67c0,0,.52-.19.5-.04s-.06.44-.48.46-.92.48-1.02.1c.04.54.23,3.75.23,3.75l.33.31s-.35.54-.79.69c-.27.62-.23,1.88-.23,1.88l.23.06s-.08.65-.21.67-.4.6-.42.81-.02,2.56-.02,2.56l.06,1.94.04.42s-.17.31-.15.45-.01,1.92.02,2.02.36,1.23.29,1.43-.31.29-.3.54-.15,2.96,0,3.25.51,1.25.53,1.51.24.04.19.56.17.47-.01,1.07.86,1.71.86,1.71c0,0,1.33,1.51,1.35,1.78s7.33.82,7.42.57c-.21-.22-.38-.35-.38-.35,0,0,.94-.44,1.62-.36s1.32.58,1.46.6,4.5-.47,4.56-.83,1.49-.6,2.15-.64,2.56-.56,2.64-.86c-.26-.01.79-.64.79-.64,0,0,1.28-.99,1.39-1.94l.11-.96.22-.29-.04-2-.26-.26s.18-1.88.04-2.03-.49-.08-.26-.33.58-.36.56-.83.24-3.81.06-4.07-.54-2.15-.76-2.39-.47-.15-.58-.26-.47.07-.07-.76.28-1.92.28-1.92l-.32-.54s.57-.46.65-.98.1-2.48-.02-2.71-.51-.03.14-1.65.12-3.77.33-4.17.45-1.49.45-2.33-.62-2.25-.53-2.98.28-1.2-.56-2.26-1.33-1.75-1.33-1.75l-.06-.58-.69-.45-.45-.94s-1.29-.69-1.5-1.21-.48-1.16-.83-1.49-1.2-.83-1.33-1.18-1.23-1.85-1.35-2.35-1.56-2.26-1.56-2.26l-1.29-2.07-.38-.11s-.82-1.32-.86-1.34-.76-1.35-1.17-1.56-1.42-.92-1.64-1.07-.46-.12-.44-1.05-.91-1.89-.91-1.89l-.23-1.1-.31.02-1.35-2.15s-.33-1.15-.17-2.19.18-1.83.18-1.83l.15.41s.21-1.92.05-2.6.17-.75.17-.75c0,0-.04-.89.03-1.67s-.14-2.53-.14-2.53c0,0-.11-1.36.34-1.97s1.3-1.77,1.35-2,.27-.78.27-.78l-.51.1s0-1.44.81-1.31,2.24.57,2.44.42c.05.11-.14.16-.14.16,0,0,1.85-.12,2.2.27s1.58,1.17,1.91,1.29.6,1.58,1.09,2.19.69,1.82.72,2.18.03,1.35.11,1.72.05.98.05.98Z"/>
    <path class="cls-1" d="M101.27,20.47l.73.94.88-1.29s-.29-1.02-.12-.85.5.44.5.44c0,0,.5-.6.56-1s-.04-2.35.19-2.52.88-1.25,1.02-1.58.42-1.62.42-1.62h.38s.46-1.37.67-1.23.31.56.31.56c0,0,1.21-1.23,1.88-1.29s1.54-.73,2.06-.69,1.92-.21,1.92-.21l-.19.21s1.36-.55,1.91.11,1.03.49,1.09.55.27.94.1,1.15-.4.99-.3,1.26c.23.44-.41,1.26-.16,3.32-.36-.6.23,1.69.23,1.69l-.13.61-.34-.17-.11,1.92.33.5-.48.82s-.18,2.11-.14,2.38.14,1.48,0,1.84-.06,1.91-.06,1.91l-.17.05.7,1.22-.4.43s.59.79.56.78-.51-.19-.51-.19l.05.52.28.54s.1.48.08.83,0,1.23.06,1.42-.06,1.5-.1,1.98-.54.69-.54.69c0,0-.17,1.23.17,1.71s.1,1.25.1,1.25l.42.48-.31.38s-.12,1.23-.06,1.62.25.81.25.81l-.48-.44s.15,1.38.25,1.56.23.54.23.54l-.12,1.51s.49.69.51.7-.47.77-.47.77v3.24s-.23,2-.23,2l.02,1.46-.27-.1-.25,2.21.06,3.77.19.73-.58.85.19,3.23.23.48-.26.97.24.85-.38,1.23-.06,2.12.06,1.92-.19,2.14-.29,1.02.06.44h-.21l.12,1.33s-.16,3.19-.43,3.69-.31,2.5-.31,2.5c0,0-.54,1.04-1.02,1.58s-1.54,1.06-1.92,1.27l.17.23,6.42.44h10.19l-2.27-1.83s.02-2.15.13-2.54.06-2.02.06-2.02l-.83-3.03.29-.27-.08-3.04s-.71-2.25-.63-2.83.25-2.77.38-2.77.73-2.44.73-2.44l-.15-1.35-.12.29-.23-1.9-.17-2.96-.27-.06s.19-3.43.38-3.68c.1.73.11,1.5.11,1.5,0,0,.8-3.17.85-4.07s-.42-2.44-.42-2.44l.25-1.62-.15-.35s.21-1,.12-1.01-.4-2.03-.4-2.03l.04-3.73.21-1.94-.35-.92.31-1.35s.29-2.6.17-3.77.33-3.96.25-4.48-.79-2.75-.5-3.48c-.4.04-.21-.44-.21-.44l.79-2.44-.21-2.02-.27-1.1.73-3.21.13-2.38.02-2.27.33-.65.38-.15s.31-1.44.17-1.81c.75-.27,2.77-.1,2.77-.1,0,0,1.96.06,2.19.23s1.42.33,1.42.33c0,0,1.94-.02,2.19.38s1.46,1.17,1.46,1.17c0,0,.15,2.35.25,2.69s.56.46.56.46l-.31.12s1.27,1.5,1.44,2.27c.06.81.44.92.44.92l.54-2.27.17-3.54.12.31.5-5.27-.12-.48.54-4.44-.33-.35s.5-1.21.31-1.35-.71-.12-1.44.17-1.92.04-1.92.04c0,0-3.4-.52-4.08-.27s-1.06.75-1.83.77-2.83-.44-3.12-.48-3.5-.73-4.38-.6-2.5.69-2.5.69c0,0-1.65.1-2.31-.04s-2.08-.54-2.52-.5-2.92-.16-2.92-.16l-.81-.09-1.12.27-4.17.1-.29.33-.6-.44-.81.04-.15.23-.52-.54s-1.5-.17-1.85.25-1.45.58-1.51.5-.12,2.29.09,3.1.02,2.06-.14,2.17-.06.52,0,.62,0,.38,0,.38c0,0-.28.67-.09,1.56s.55,1.69.32,1.88-.39-.04-.39-.04c0,0-.07.75.09,1.1s.19,1.19.08,1.6.02,2.42.02,2.42l.27,1.42-.29.94.02.44v1.15Z"/>
    <path class="cls-1" d="M169.46,84.36s-.48.17-.69-.56c-.21-.73-.6-3.15-.75-3.5-.15-.35-.62-1.81-.83-1.96.23-.1.4-.42.4-.42l-.17-.58s-.54-.48-.56-1.25c-.02-.77-.08-2.17-.1-2.54-.02-.38-.48-.98-.48-.98l.46.21s-.4-1.58-.38-1.9.42-.23.31-.48-.02-1.27-.31-1.73c-.29-.46-.69-1.33-.65-1.77.04-.44.06-1.25-.04-1.35-.1-.1-.52-2.15-.52-2.46s-.01-1.93-.02-2.4c0-.47-.33-4-.84-4.96s-.58-4.63-.58-5.6-.39-1.64-.39-1.64l-.5-2.97-.19-.08-.22-3.58-.22-1.06.17-1.33-1.28-4.5-.28-1.94s-1.11-3-.92-3.78-.56-2.22-.56-2.22l-.44-1.86-.42.31.19-.92-.47-4.83s-.92-3.78-1-3.83c-.08-.06-.28-.19-.28-.19l.14-.78-.67-4.58-1.06-1.72.31-.44s-.28-1.97-.08-2.03-.31-.25-.28-.56,0-1.64-.03-2c-.03-.36-.69-.83-1.11-1.67-.42-.83-1.25-.68-1.25-.68l-1.44.24-.18-.24h-2.92l-2.12,2.48.21.58-1.77,4.33s-.48,3.98-.44,4.56c.04.58-.17,2.9-.38,3.21-.21.31-1.5,2.65-1.56,3.56-.06.92-1.12,4.81-1.12,4.81l.4.77s-.75,1.79-.85,2.52c-.1.73-.62,3.96-.85,4.48-.23.52-.1,4.42-.1,4.42l.6-.46s-.65,2.08-.92,2.6c-.27.52-.4,3.12-.25,3.27.15.15.29.46.29.46l-.85.71s-.88,3.94-.83,4.35c.04.42-.85,3.38-.58,3.56s.33.48.33.48l-.92.46s-.17,4.02-.44,4.83c-.27.81-.33,3.08-.56,3.96-.23.88.04.96.04.96l.02.62-.42.21s-.44,2.35-.29,2.67c.15.31.17.67.17.73s-.4-.52-.4-.52c0,0-.48,1.83-.4,2.4.08.56.08,3.1.08,3.21s.48,0,.48,0c0,0-.69,1.17-.69,1.25s-.21,2.21-.21,2.38-.04.6-.04.6h-.35l.04.56s.06.65-.1.71c-.17.06-.39.9-.6,1.25-.05.8,0,1.39,0,1.39l-.56,1.09s-.78,1.28-.9,1.31c-.11.03-.63,1.81-.63,1.81,0,0,.38,1.96.17,2.42-.21.46.05.78.05.78l15.58.14-1.88-2.22s-.07,0-.38-.32c-.31-.32-.6-1.54-.75-1.56-.15-.01-.1-1.92-.18-2.28-.08-.36-.57-.86-.64-1.17-.07-.31.1-1.78.1-1.78l.46-1.94.12.29s.22-4.11,0-5.1c-.22-.99.04-2.78.17-3.18s.21-.89.18-.96.1.31.1.31c0,0,.94-2.93,1-3.75.06-.82.12-1.79.12-1.79,0,0-.56-.18-.65,0-.25-.08.72-.72.72-.72,0,0,.71-.01.72-.5,0,0,.01-.41.12-.41s1.38.08,1.46-.04,1.76-1.19,1.76-1.19l1.13-.58-.15.44s.86-.93,1.79-1.04c.93-.11,2.54-.31,2.54-.31l.32.28.38-.11.32,1.49s.83.47.75.51-.65.06-.67.26c-.01.21.21,1.14.21,1.14l.28.54-.25.14.07,3.17.35.18-.14.44s.33,2.06.15,2.6.11,2.81.11,2.81l.36.42-.24,1.07s-.47.61-.4,1c.07.39.24,1.38.15,1.71-.08.33.35,2.03.35,2.03,0,0,1.21,1.12,1.21,1.33s-.94-.23-1.01-.32-.02.76,0,.82c.02.06.19,1.23-.04,1.75-.23.52-.6,1.69-.79,1.77-.19.08-.46,1.02-.46,1.02l-.33.81.25.42s-.46-.21-.6-.08c-.15.12-.06.67-.12.94-.06.27-.17,1.04-.08,1.15.08.1,2.73-.04,2.73-.04,0,0,5.29-.48,7.02-.38s2.77-1.27,2.77-1.27c0,0-.71,1.12-.81,1.17-.1.04,2.21-.08,2.31-.25.1-.17.77-.38.83-.33s0-1.15,0-1.15ZM154.38,47.01v1.1s0,.19-.24.2c-.1,1.21-1.34,1.98-1.34,1.98l-.28-.46s-.74.76-1,.76-2.68.42-4.05.79-1.45.4-1.23.12c.22-.28,2.06-17.11,2.06-17.11,0,0,.33.56.61.83s1.27-7,1.27-7c.06.68.35.48.36,1.06,0,.58.52,2.72.52,2.72l.46.53s-.11.28.08.97c.54,1.99.93,2.56,1.03,3.08s.15.78.1,2.17c-.06,1.39.54,1.24.44,3.08s.17,1.32.38,1.78.12.96.12.99.73,1.24.86,1.59c.14.35-.14.8-.14.8Z"/>
    <path class="cls-1" d="M160.36,1.85l3.89,3.94s1.33,3.31,1.33,3.78-.39-.47-.39-.47c0,0,.67,3.25.81,3.69s.28,1.22.14,1.89-.16,2.44.06,2.78.39,1,.41,1.11.69,4.94.69,4.94l1.14,2.72v2.36l.31,4.94.22.83.78,5.25-.28.14s.61,1,.56,1.39.15,1.47,0,1.89.5,6.31.5,6.31l.83,5-.19,4.33.56,4.64-.36-.5s.81,3.78.78,4.58.14,5.17.31,5.67.17,1.96.17,1.96l.89,4.25s.25,3.03.47,3.11,1.33.44,1.5.72.58-.53.58-.53v.92s1.03,1.97,1.44,2.17,1.47.08,2,.28.86-.14.86-.14c0,0,1.14-1.83,1.69-2.08s-.02-8.54-.02-8.54h-.42s1.28-1.97,1.42-2.86-.11-3.44.19-3.75.22-3.28.67-3.5.89-1.5.97-1.81.11.31.11.31c0,0,.53-2.31.67-3.94s.31-3.5.64-4.31,1.03-3.44,1.19-4.5,1.14-3.47,1.14-3.47l1.25,5.17s.75,4.97.94,5.94,1.19,5.47,1.64,6,1.53,3.06,1.39,3.86-.58,1.89-.44,2.14.64,3.03.64,3.03l-.36-.28.64.97-.14.85-.34,1.94-.26-.24-.57,4.25.28-.44s-.3.96.14,1.69c1.83,3.1,1,.77,1.91,2.16.4.61,1.42,2.76,1.84,2.82s1,.19,1,.19c0,0,2.33-5,2.62-4.19.17.48,1.73-2.47,1.72-2.87s.03-3.23.03-3.23l-.44-1.17.44.69.22-.86-.64-1.03.61.44s-.24-1.49-.06-2.07-.19-1.85.01-2.43.29-2.5.4-2.43.11.33.11.33c0,0,.56-2.03.51-3.36s-.01-5.93.22-6.26.87-2.29.9-2.98-.13-3.04-.15-3.54-.12-.94.12-1.33.56-1.71.58-2.12.29-4.15.29-4.15l.17.65s.25-5.92.54-6.65.96-3.04.87-3.65-.31-1.81-.31-1.81l-.08.33s.04-1.52.29-1.92.19-3.56.19-3.56l.58-1.25.08-3.19-.15-.15.71-.31,1.06-3.65.17-5.12-.02-.83-.27.06s.54-2.58.92-3,.88-3.44.88-3.44l.33-1.6s1.02-1.58,1.73-2.04.83-.96.83-.96l-.15-.64.1-1.28-1.57.07-.11.29-.39-.32-4.13.1-.43.6-.46-.72-.79.03s-.31-.19-.47-.29-.62,0-.62,0c0,0-.01.19-.08.21s-.31-.29-.31-.29c0,0-1.71.08-1.81.06s-.39.5-.39.5c0,0-.56-.5-1-.49s-3.06.06-3.17-.03-.54.03-.54.03l-.57-.03-.35.6h-.36s-.07.15.04.32,2.9.81,3.14,1.56,1.78,2.96,1.78,2.96c0,0-.21-.01-.21.03s.92,1.76,1.08,3.14.47,1.89.47,1.89l.15.04s.39,1.21.25,1.61.07,1.28.07,1.28c0,0-.06.69-.15.79s-.04,1-.15,1.17-.18.78-.18.78l-.18.43v.44s-.01.18-.01.18c0,0-.28.38-.26.42s-.01.56-.01.56v.89l.08.35-.24.39s-.16,3.13-.16,3.24-.35.53-.35.53c0,0-.47,2.65-.44,2.75s.18.4.18.4l-.4.03-.24,1.67s-.03.49-.03.67-.47,1.64-.6,1.63-.26,1.62-.26,1.68-.22,1.85-.22,1.85l-.14,2.29-.33,1.06v-.6s-.25,1.06-.17,1.9-.08,1.51-.08,1.51c0,0-.14,1.33-.24,1.53s.06-.12.36-.03-.11.68-.29.85-.47.83-.47.83c0,0-.54,1.27-.59,1.51s-.74,1.83-.74,1.83l-.67-1.25s.15-1.69-.1-2.06-.31-1.4-.29-2.25-.62-3.17-.62-3.17l-.25-2.54-.4.06-.33-4.35-.48-3.27-.67-.4-.33-4.15s-.25.33-.25-.06.04-3.04.04-3.04l-.75-3.19-1.02-3.46-.12-1.15-.35-1.21-.23.17-.08-2.02s-.87-2.17-.83-2.75c-.27.98-.29,2.38-.58,3.1s-.98,4.69-.94,4.87.71-.19.69.08-.9.65-.9.65l-.21,1.17s-.27,1.37-.27,1.67-.58,2.83-.73,2.79.08,1.38-.1,2.1-.83.8-.91,1.29-.35,2.85-.35,2.85c0,0-.29,2.17-.46,2.29s-.58,1.46-.58,1.46l-.83,4.12-.12-.12s-.42,2.48-.6,3.04-.54,2.48-.54,2.48c0,0-.94,3.92-.94,4.25s-.52,1.62-.52,1.62c0,0-.42-.08-.48.23l-1.04-5.67-.25.12s.06-3.1-.12-3.35-.81-1.67-.69-2.29.35-3.19.35-3.19c0,0-.52-3.38-.56-3.56s-.52-.62-.52-.62l-.42-.67s.85.27.65-.56-.31-2.27-.25-3.19-.04-2.27-.04-2.27l-.19-.85-.04-2.96-.42.02s.27-1.81-.21-2.83-.38-1.77-.38-1.77c0,0,.21-2.27.6-2.5s.4-2.06.4-2.06c0,0,.13-2.46.33-3.48s.5-1.77,1.02-2.06,1.94-1.4,2.69-1.5c-.29-.52-1-.81-1-.81l-2.15.27s-2.65.71-3.35.79-2.96-.21-3.23-.33-2.35-.4-2.9-.33-2.67,0-3.35,0-4.1.08-4.23-.02-.27.17-.27.17Z"/>
    <path class="cls-1" d="M242.82,83.76c0-2.33-.48-3.52-.48-3.52l-.4-3.58-.76-4.19-.04-3-.79-4.17-.32-.04-.19-2.93-1.1-5.67s-.75-1.75-.76-4.46c-.01-2.71-.56-4.06-.56-4.06,0,0-.11-3.11.12-3.72,0,0-.26-.68-.51-1.81s-.73-3.88-.73-3.88l-.19-2.31-.25.29s.19-4.62-.17-4.94-1.31-1.44-1.23-2.62c.08-1.19-.17-2.02-.17-2.02l.54.17s-.29-3.17-.73-4.38c-.44-1.21-.73-2.56-.6-3.1s-.69-3.25-.88-3.96c-.19-.71-.56-3.65-.56-3.65l-.21-1.48-.31.35.06-3.58-.38.21s-.25-1.98-.62-2.33-.48-.71-.48-.71l.38.19s-1.04-1.52-1.29-2c-.25-.48-.54-1.38-.83-1.56s-1.46.21-1.98.12c-.52-.08-2.48-.1-3-.08-.52.02-2.21-.19-2.56-.14-.47.07,0,3.11,0,3.11l-.54.96-.21-.38-.62,3.83-1.08,2.71.42-.17-.88,2.29s-.21,4.71-.21,4.83-.38,0-.38,0c0,0,.04,4.08-.42,4.92-.46.83-1.58,5.25-1.58,5.54s.25-.25.25-.25c0,0-.33.92-.71,1.67s-.67,7.71-.67,7.71l.29.62s-.92,1.62-1.04,1.12c0,.75.33,1.79.33,1.79l-.04,3.12-.83,1.54.29,1.75s-.88,1.92-1.17,1.58c-.33.79-.67,6.38-.58,6.62.08.25-.38,1.33-.88,2.54s-.29,4.58-.29,4.58h.58s-.83,1-1,1.92-.92,9.42-.83,10.38c.08.96.67.79-.17,3.08-.83,2.29.29,2.21-.83,4.08s-1.71,4.39-1.71,4.39l-.58.7.5.33h-.54s12.46.67,14.25,1c-.96-2.5-1.62-4.92-1.33-5.83-.92-.96-1.33-2.54-.92-3.42.54-.29.75-1.33.75-1.33,0,0-.08-2.46-.21-3.21s-.12-.38.17-1c.29-.62.62-5.17.46-5.29s-.29-.62-.29-.62c0,0,1.11.01,1.11-.9s.08-3.42.44-3.72c.36-.31.62-2.01.82-2.07.19-.06.22.25.22.25,0,0,.61-1.44,1-1.44s2.39-.03,3.56-.53c1.17-.5,3.92-1.28,4.03-1.17s.58,5.06.58,5.06c0,0,.33.17.42.19.08.03-.31.42-.33.5-.03.08,1,4.56,1,4.56l.56-.47-.53,2.11s.17,3.11.33,3.33c.17.22-.14.42-.14.42l1.62,1.07-.97,2.14s.28,1.21.19,1.56-.46.65-.46.65l.15,1.7s.46,1.65.29,2c-.17.35-.88,1.77-.96,1.75-.08-.02-.83.75-.83.75,0,0-.96.77-1.15,1.54-.19.77-.56,1.94-.69,2s3.94.23,4.6.6c.67.38,3.94.35,5.02.25,1.08-.1,2.31.85,3.52.81s2.83.19,2.88-1.12-2.06-4.17-2.06-6.5ZM228.44,47.18c0,.28-.34,2.05-.45,2.39-.11.33.42,1.08.42,1.08,0,0-.03.58-.17,1.36-.56.11-.86.53-.86.53l-2.08.33s-.51-.28-.7-.31-1.89.08-1.89.08l.36.22s-1.78.69-2.03.56c-.25-.14-.6.11-.62-.05-.07-.56,1.01-2.61,1.17-3.75.17-1.14.56-6.31.75-6.17.19.14.5-2.5.81-4.06.31-1.56.05-4.93.05-4.93,0,0,.09.51.25.71.17.19,1.44-7.67,1.44-7.67l.69,1.58-.3.61.58,1.64.03,2.39.61.42-.19.22s.39,1.47.47,2c.08.53-.06,1.94.11,2.61.17.67.78,3.36,1.08,4.53s.06,2.83.14,2.97c.08.14.41-.09.41-.09,0,0-.1.51-.1.78Z"/>
    <path class="cls-1" d="M238.54,4l-1.92-1.61-1.28-.36-.19-.36h17.33l.33.64s-2.86,3.06-2.81,3.83c.28,1.33.53,3.18.53,3.18l-.18-.22s.85,2.79.88,3.01-.24,3.26.04,3.97.15.44.15.44l-.26.05s.26,1.02.75,1.12c.15.57.17.9.17.9,0,0,.17,1.4.44,1.6.03.58.24,2.1.29,2.29s.26,1.68.32,1.69.45,1.87.47,2.35.38,3.58.88,4.29.73,1.88.73,1.88l.83,2.04.81-2.42s.04,1.21,1.46-3.23,1.83-5.17,1.83-5.17c0,0,.04-2.13.21-2.27s2.17-4.42,2.13-5.35.17-2.35.17-2.35c0,0,.44-2.17.46-2.87s.06-3.08.06-3.08c0,0,.53-3,.39-3.51s-1.51-2.11-1.53-2.35.07-.21.07-.21c0,0,3.81-.49,4.08-.79s4.35-.13,4.68-.14,1.4.24,1.4.24c0,0,1.17-.2,1.42-.25s1.23.05,1.29.05,2.81.34,2.86.18c-.03.41-.23.78-.23.78l-2.41,1.96-1.57,1.62-1.2,2.93s-.46,3.98-.96,4.98-.74,1.42-.81,2.22-1.67,1.04-1.86,2.14-.07.93-.07.93l-.04.94-.32.81-.43.39-.13-.25s-.01.73-.07,1.28-.42.75-.47,1.01-.4.61-.4.73.16.45.06.6-.34.51-.34.51l.02.68h.27l-.2.72-.23,1.35-.07.95-.44.33-.56,2.96-.54,2.38-.58,1.21-1.48,1.56.67-.15s.15,2.03-.19,2.68-1.42,2.04-1.36,2.61.15.51.15.51l.31-.19s-.01,1.92-.28,2.39-.71.96-.89,2.06-.17,1.32-.17,1.32l-.14.28.17-.06v.81s-.1,1.9-.1,1.9l-.18.21.07.43-.17,1.18-.25,3.75-.06,1.52.29.48-.23.35s-.19,1.15-.02,2.01.07,2.1.07,3.15-.04,2.15-.04,2.15l-.33-.14.35.67.07,4.54v2.32s-.29.22-.29.22l.12.26.04,1.76-.44.36s.35,1.08.33,1.96-.19,2.4-.1,3.12.22,3.47.5,4.15,1.25,2.25,1.47,2.44,0,1,.26,1.5,1.15,1.21,1.15,1.21l.9,1.76.9,1.33,2.07.85.21.49h-1.54l-4.33-.51-3.61-.37-.24-.39-3.14.03s-1.19-.18-1.51-.4-1.4-.92-1.81-.92-2.14-.19-2.26-.28-.38-.22-.38-.22c0,0,.78-1.57,1.56-2.22s1.37-2.1,1.37-2.1l.08-.9.12-.06s-.44-.58-.43-2.1.1-2.39.07-3.21-.03-1.68-.13-1.82.15.11.15.11c0,0-.21-2.11-.06-2.39s.24-.96.14-1.44-.28-1.19-.25-1.82.22-1.07.12-1.35-.15-1.6-.35-1.99-.17-1.74-.17-1.82-.15-3.1-.04-3.4.36-2.15.32-2.69-.02-3.01-.08-3.17,1.19-2.3.67-3.2-.44-.08-.54-1.35-.25-2-.17-2.33.38-2.38.31-2.65-.58-.42-.67-.62-.17-1.52-.17-1.52l.58-.98s-.12.21-.67-1.19-.83-1.48-.83-1.48c0,0,.58-.18.4-.81s-.39-2-.7-2.4-.9-.12-.94-1.17-.31-2.29-.31-2.29l-.58-.56-.52-2.44s.1-.44-.19-1.02-.63-1.5-.81-1.92-.67-.96-.87-1.67-.4-2.48-.71-2.9-1.31-3.15-1.31-3.15l-.42-1.96-.54-2.04-.5-1.17.31.25s.31-1.48.02-2.04-1.04-1.38-1.15-1.81-.5-1.81-.5-2.15.23.46.48.23-.52-.96-.62-1.58-.21-2.38-.21-2.38l.44.08s-.67-.94-.88-1.69-.46-1.27-.46-1.27c0,0-.1-1.27-.17-1.46s-.08-.62-.53-1.12Z"/>
    <g>
      <path class="cls-1" d="M59.62,118.27l-.03.49-.06.49-.09.46-.15.64-.15.41-.26.58-.2.38-.35.52-.29.35-.35.35-.35.32-.58.38-.38.26-.44.23-.41.2-.67.23-.87.29-.46.09-.73.12-.44.06-.64.06-.41.03-.67.03-1.39.09h-.64l-.41-.03-.67-.06-.44-.06-.49-.09-.44-.15-.64-.2-.41-.2-.44-.2-.41-.2-.38-.23-.93-.64-.35-.29-.52-.41-.35-.29-.32-.32-.23-.26-.03-.2.15-.26.12-.14.29-.32.81-.75.26-.32.49-.75.26-.32.29-.32.32-.17.32.06.32.23.93.64.44.23.41.2.67.32.44.14.46.15.46.09.67.03.46.03,1.83-.12.46-.06.23-.06.44-.17.38-.23.29-.29.15-.2.17-.44-.03-.49-.06-.23-.23-.41-.15-.17-.38-.29-.23-.09-.44-.17-.49-.12-.49-.09-2.76-.26-.87-.17-.46-.12-.64-.23-.44-.14-.44-.2-.99-.49-.38-.26-.44-.26-.38-.26-.49-.41-.26-.38-.26-.43-.17-.44-.2-.61-.09-.43-.09-.64-.06-.93.03-.46.06-.7.09-.44.12-.38.15-.44.29-.64.2-.41.23-.35.29-.32.46-.44.38-.29.38-.26.41-.2.55-.32.87-.35.44-.15.67-.12.46-.09.87-.12.64-.12.46-.06.44-.03h.46l.87.09.44.06.2.06.46.06.99.17.49.12.46.15.49.14.46.17.44.2.44.17.55.32.41.2.38.26.26.26v.29l-.17.32-.32.58-.23.35-1.1,1.45-.32.41-.35.29-.23.09-.2-.03-.29-.14-.44-.26-.44-.17-.2-.09-.44-.14-.23-.06-.49-.12-.67-.15-.46-.03-.75-.06h-.75l-.49.03-.49.09-.46.14-.17.09-.35.26-.15.17-.2.41-.06.46.09.38.23.38.32.29.35.17.2.09.44.09.73.09.99.06.49.09.99.23.93.29.67.15.44.12.81.29.58.26.41.2.41.23.38.23.84.7.32.35.29.35.35.52.23.38.2.44.12.44.12.64.06.44.03.49ZM43.81,119.92l-.03.03h-.03l-.03.12.09.12v-.26ZM44.13,111.31l-.09.03-.06.23.12.06-.03-.17.06-.09v-.06ZM44.13,109.6h.09l.03-.03v-.06l-.03-.03h-.06l-.03.12ZM44.16,107.39l.03.06h.09l-.06-.12h-.06v.06ZM44.3,112.15l-.06-.06-.06.06.03.09h.06l.03-.09ZM44.36,106.99l.26.58.06-.55-.09-.12-.17-.03-.06.12ZM44.36,110.41l.09.09.2-.03.03-.06-.09-.09-.23.03v.06ZM44.74,112.03l-.15-.17-.09-.03-.06.06.12.17v.12l.17-.15ZM44.54,109.6l-.03.03v.06l.06.03h.06l.03-.03-.03-.06-.09-.03ZM44.54,106.55l.12.06v-.03l.03-.06.32-.03-.2-.12-.26.17ZM44.57,108.9l.06.03v-.09l-.09-.06v.09l.03.03ZM44.97,121.14l-.12-.09v-.12l-.06-.03-.17.2.35.17v-.15ZM44.8,107.07l.09-.06v-.03l-.12-.03-.03.09.06.03ZM45.46,110l-.12.03-.09-.03-.09.09h-.23l-.06.96.15.06-.06-.55.09-.09.12-.03.06.12.2-.03.03-.52ZM44.97,107.59l.26-.06.03-.23-.06-.03-.12.15-.12.17ZM48.1,105.59l-.06-.17.17-.09h.17l.06-.06.12-.03v.17l.32.2.03.09-.06.15v.09h.03l.03.03.12-.41.23-.03v.35l-.03.03v.06l.09.06.09-.2.15-.09.03.03h.03l.06.17.32.29.32-.03.17-.2-.09-.14-.17.14-.15-.03v-.06l.12-.09.03-.29.46-.15-.35-.14-.06.12-.2-.06-.12-.12h-.15v.32l-.26.2v-.03l-.41-.32.09-.17-.15-.17-.09-.03v-.03l-.17-.09-.12.23-.29-.2-.17.09-.12-.06-.15.06.03.12.09.06-.03.12h-.61v.06l-.09.14-.2.09-.26-.17-.09.06-.09.61-.29.15-.09-.06-.09-.17.03-.41-.41.03-.03.03-.2-.03-.17-.12-.09.15.2.06-.52.44v.12l.06.06h.06l.15-.12-.03-.09.15-.2.52-.09.06.06-.03.09.06.09-.26.23.32-.12.29.2.41-.17.09.06.12-.09.09.06.29-.09.12-.2.58-.32ZM45.41,111.39h-.03l-.06.06v.06l.06-.06v-.03l.03-.03ZM45.64,107.16l-.2.03v.03l.03.03h.09l.09-.09ZM46.1,121.43l-.12-.06-.26.06-.09-.14-.09-.03-.06.06.03.15.55.03v-.03l.03-.03ZM46.07,107.07l-.29-.2-.15-.12-.12-.03.06.26.17-.09.09.2.23-.03ZM45.96,112.93l-.29.29.12.03.17-.09v-.23ZM45.73,120.91l.03.03h.06l-.03-.14-.06.06v.06ZM46.04,123.26l-.09-.03h-.12l-.06.06.06.12.2-.09v-.06ZM46.16,106.7l.09-.06-.06-.09-.17-.09-.06.12.06.12h.15ZM45.99,105.22l.09.09h.06v-.09h-.06l-.03-.03-.06.03ZM46.33,111.42l-.12.09-.06.14.03.03h.06l.09-.09v-.17ZM46.83,106.7l-.09-.03-.23.15.09.12.23-.23ZM47.18,113.69l-.09-.55-.03-.03.03-.2-.03-.03-.03.12-.17.09-.03-.03v-.09l.03-.03-.03-.03h-.03l-.2.23.12.03.03-.03.12.23h.06l.15.32.06.03.06-.03ZM46.68,107.51v.03h.03l.03.03.03-.06v-.09h-.09l-.03.06.03.03ZM46.71,104.84l.09.09.78.12.2-.26-.96-.03-.12.06v.03ZM46.74,112.18l.15-.03-.06-.06-.06-.03-.03.03v.09ZM47.06,114.85l-.17-.26.09-.09h-.06l-.03-.03h-.06l.03.29.2.09ZM47.29,107.25l-.09.06-.12-.03-.09.06.03.12.15-.03.09-.09.03-.09ZM47.29,106.7l-.12-.06-.09.09v.12h.15l.06-.06v-.09ZM47.61,122.1l-.09-.09v-.09l-.44.23v.06l.38.09.12-.09.03-.12ZM47.29,105.91h.12l-.09.06-.12.06-.09-.03.03-.03v-.03l.12-.03.03-.03v.03ZM47.58,123.95l-.09-.09-.15-.03-.03.03-.12-.03-.06.06.06.09.15-.03.12.09h.09l.03-.03v-.06ZM47.55,107.16l-.06-.09-.06.03-.03.09h.12l.03-.03ZM47.64,105.62l.03.03v.06l-.15.06v-.09l.12-.06ZM47.61,107.88l.03.03.12.03-.06-.12-.09.06ZM48.02,107.1l-.12-.06-.17.12h-.09l.15.15.23-.2ZM47.73,106.41l.06-.06v-.12l-.12-.03v.12l.06.09ZM48.1,122.94l-.09-.03-.06.03-.03.06.03.12.06.06.09-.12v-.12ZM49.47,113.92l-.06-.23-.15.26-.38.2-.46-.26-.09-.23-.23.2.2.2.09-.06.12.06-.06.26.15.2.12-.03.03-.09-.06-.06v-.09h.46l.06-.09h.23l.03-.26ZM48.57,107.1l-.06-.12-.32.03-.06-.06.03.12.17.15h.15l-.03-.03.12-.09ZM48.28,121.08l-.06-.06h-.06l-.03.09.03.03h.06l.06-.06ZM48.66,106.35l-.35-.32h-.06l-.03.06.06.09v.26l.23.06.06-.12.09-.03ZM48.25,104.4l.03.12.09-.09.03-.12-.03-.03h-.03l-.09.12ZM48.71,105.8l-.29-.12-.03-.06-.15.23.12.03.35-.09ZM48.25,113.13l.12.03.12-.17.17.14h.09l.26-.38-.15.14-.15.03-.38-.26.06.17-.15.23v.06ZM48.36,106.78l.06-.03.09-.12-.03-.03-.15.06.03.12ZM48.39,104.61l-.03.09v.09l.06.03.03-.03v-.12l-.06-.06ZM48.66,123.93l-.06-.26-.23-.09.03.41.12.06.12-.09v-.03h.03ZM48.66,121.84l-.09-.03-.09.03.09.03.09-.03ZM48.54,104.32l.06.06.09-.15-.03-.03-.09.06-.03.06ZM49,106.96l-.09-.09-.03-.06-.03-.03.06-.12-.09-.06-.09.09.06.26.15.12.06-.12ZM49.35,106.55l-.03-.32-.49.06.03.12.41.14.03.09.06-.09ZM49.09,104.78l.17.06h.06l.26.03v.14l-.06.06v.06l.06.03.06-.09h.06l.26-.23-.03-.15h-.75l-.03.06-.06.03ZM49.79,124.3l-.09-.06-.15-.03-.12.09h.2l.12.09.03-.09ZM49.9,106.41l-.38-.32-.06.12.06.23.26.06.12-.09ZM49.55,104.26l.41-.03.12.09.15-.03-.46-.17-.2.15ZM50.25,106.55l-.06-.12-.09.03-.12.15-.03.12.09.12.17-.03.03-.26ZM50.22,104.87l-.06.06.03.03.12-.03v-.09l-.09.03ZM50.42,123.72l-.03-.12-.15-.03h-.09l.03.12.03.03v.03l.12.06.09-.09ZM50.28,104.58l.03.03.06.03h.06l.03-.06-.03-.06-.12-.03-.03.09ZM50.48,104.87l-.12.23.09.06.06-.03.09-.29.12-.12h.2l-.06.35-.26.23.26.06.26-.23v-.09l.52-.41.12.09.03.15-.09.17.2.61-.15-.12-.06-.26-.12-.06.06.2-.26.15.15.17.12-.06.03.15-.15.03-.06.17-.2.12-.35-.06.2-.29-.29-.03-.06.23h.03l.03.03-.29.49.38.38v-.17l.35-.12-.38-.15v-.17l.03-.03h.03l.06.06.06-.03v.03l.49.09.12.12.03.14.2-.14.12.03.12.23.06-.09.15.09-.03.2-.03.03v-.03h-.23l.09.09.15.03.03.03v.03l.09-.12.03-.03.03-.06.06.12-.09.2.06.12.26-.03-.12-.09v-.23l.35-.14.15-.23-.06-.06v-.03l-.32-.17-.03.03-.12.06-.09-.03v-.26l-.12-.15v-.03l-.12.12-.23-.06v-.17l.12-.06-.26-.2h.17l.12-.09-.09-.12.03-.23h.12l.06.09.15.06.03.12-.06.23h.03l.32.26-.03-.03v-.03l.26.46.15-.03.15-.29v-.03l.52-.03-.03-.09h-.09l-.03-.03-.03.03-.03-.03v-.03l.09-.09v-.12h-.9l-.03-.15.81-.2-1.1-1.19-.12.03v.03l.03.03h.03l.09.26-.06.26h-.09l-.12-.03.03-.14-.23-.26h-.2l-.12.09-.17.03-.09-.06-.15.03.06.09h.09l.12.17-.06-.06-.15.03-.03-.03-.35.12-.2-.26-.17-.09-.03.12v.12l-.12.06v.23ZM50.57,114l.15.03.12-.06.03-.09h-.26l-.03.03-.09-.06-.09.03.06.09h.09l.03.03ZM50.57,105.74h.03l.03-.09-.06-.03-.06.06.06.06ZM50.95,114.21l-.09-.03-.15.09.03.09.17.03.03-.17ZM51.09,107.16l-.03-.12h-.03l-.06.03v.12l.12-.03ZM51.12,105.71l.12-.29.2-.09h-.03l-.2-.06-.17.26.09.17ZM51.18,115.25l-.06-.03-.06.06.03.09.09-.12ZM51.56,115.08l-.06-.03h-.06l-.03.06.06.09.06-.03.03-.09ZM51.59,107.01h-.06l-.03.03.03.09h.03v-.03l.03-.09ZM52.08,104.67l-.12.09v-.15l.12-.06v.06l-.03.03v.03h.03ZM52.17,105.07l-.2-.15.06-.09h.09v.03l.03.06.06.03-.03.12ZM52.08,107.48l-.03-.12-.09-.14.03.26h.09ZM52.22,113.6l.09.06.23-.06.12.03-.15-.32-.12-.03-.15.14-.03.17ZM52.75,114.5l-.2-.06-.23.12.23.15.2-.03v-.17ZM52.69,122.68h-.23l-.03.03v.06h.12l.15-.09ZM53.01,113.16l-.2-.09h-.2l-.03.09.06.09.38-.09ZM53.18,122.36l-.03-.17h-.06l-.06.06.09.12h.06ZM53.21,107.01l-.09-.09-.03.09.03.09.09.03v-.12ZM53.27,114.56l-.17.09.09.12v.03l.09-.23ZM53.91,107.13l-.23-.35h-.09l-.09.12.12.29-.09.17-.41.03.03.29-.03.03.03.03v.03l.75-.64ZM53.21,107.19l.03.09h.06l.12-.12-.06-.09h-.03l-.12.12ZM53.59,115.51l-.09-.12h-.2l-.03.06.06.09.26-.03ZM53.88,106.41l-.06-.09-.03-.03-.29-.12v-.03h-.09l-.12.17.03.2.32.17.29-.06.09.09v.06h.06l.15-.2v-.06l.2-.12v.03h.03l.09.12.17-.09v.03l.15.06.17-.41-.29-.38v.03l-.2.03.03-.29-.15.12-.06.23.12.15v.14l-.23.06-.03.14-.26-.03-.09.06ZM53.64,113.83l-.03-.06-.2-.03-.09.09.03.06.03.09.15.06.06-.06v-.09l.06-.06ZM53.93,122.36l-.2-.17-.03-.03v-.03l-.17.09-.03.12.03.03h.09l.09-.06.23.06ZM54.31,107.91l-.15-.17.03.32h-.12l-.17-.2v-.06l-.29-.12-.03.23.2-.14.52.58v-.44ZM53.88,123.81l-.06-.09h-.17l-.03.06.03.09h.06v.03l.15-.03.03-.06ZM57.42,121.11l-.17-.03-.32.12-.32-.41-.09.23.15.38-.12.2-.23-1.1-.17-.03-.03-.03h-.03l-.26-.17-.44.23.12.26-.06.26-.23-.29v-.03l-.06-.09-.64-.26-.2-.32.15-.23.15-.03.06.15.12.06.12-.06-.17-.26v-.06l.29-.12-.26-.2-.23.06-.26.26-.06.38-.32.35-.2.06.12.17.35-.14.15.06.2-.06.41.29v.2l.2.12-.06.06.49.29.15-.06.06-.12-.03-.06.41.06.2.26-.23.23-.15-.09-.03-.12-.06-.03-.03.03v.87l-.06.03-.35-.23h-.15l-.09-.46-.2-.23-.32.2v.03l-.06.09.03.17.15.09.15-.06-.03-.09.09-.09.29.55.17.03.09.2.23.06.64-.61h.03v-.03h.26l.32-.26v-.03h.03v-.03l.06-.06.09.06.09-.03v-.15l-.12-.12v-.06l.26-.23ZM54.4,122.13l-.12-.12-.32-.52-.15-.03-.06.09.35.52.15.06-.06.15.03.12.17-.09v-.17ZM53.91,122.94l-.03-.03-.06.03-.06.12.12.03.03-.14ZM54.43,121.26l-.12-.46.09-.06-.03-.09-.09-.03-.03.09-.17.14-.15-.06-.09.06-.06.17.03.06.06.03.12-.03.44.17ZM54.02,107.65h.09l.15-.03-.26-.06.03.09ZM54.02,114.27l.15.26h.23l-.2-.32h-.12l-.06.06ZM54.11,121.49l.12.03v-.06l-.06-.09-.09-.03.03.15ZM54.46,107.13l-.06-.09-.15.15.03.12-.03.03.12.03.09-.23ZM54.46,114.88l-.03.03.49.12.09.14.23.09.06-.03-.75-.58-.12.09.03.14ZM54.8,122.68l-.12-.06-.17.14.03.09.09.03.17-.09v-.12ZM54.95,107.3l-.06-.26h-.12l-.23.32.15.2.12-.06.15-.2ZM54.78,117.4l-.06.09.29.12v-.14l-.09-.09-.15.03ZM54.95,116.53l-.06-.09h-.06l-.03.03v.03h.03l.12.12v-.09ZM54.86,119.25l.29.2.17-.06-.09-.2-.23-.03-.15.09ZM55.01,116.91l-.12-.06.03.15.09-.03v-.06ZM55.04,118.27l-.06.15h.15l.03-.03h.03l.09-.12-.03-.06-.06-.03-.15.09ZM55.04,118.91l-.06.09.44.03-.38-.12ZM55.12,118.59l.12-.06v-.03l-.17.03.06.06ZM55.21,117.51l.09-.23-.06-.15h-.06l-.06.03.09.35ZM55.15,107.8l.06.14.09.09.12-.03.03-.15.06-.03-.06-.12-.23.03-.06.06ZM55.47,119.78h.09l.03-.03h.03l.06-.06-.52-.17.15.14h.03l.15.12ZM55.21,118.79l.06.12.09-.06-.03-.06h-.12ZM55.39,120.01h-.09l-.06.06v.06l.12.09.09-.03v-.09l-.06-.09ZM55.3,107.3l.09.17.09.03h.06v.03l.03-.03.03-.12-.09-.17-.2.09ZM55.39,117.78l.06.06.06-.03.03-.09-.09-.03-.06.03v.06ZM55.44,116.96l.09.09.06-.12-.06-.12h-.06l-.03.03v.12ZM55.5,118.44l-.06.2.2.12v-.17l-.03-.03-.03-.2.03-.03-.09-.09-.03.14-.03.03v.03h.03ZM55.68,119.46v.09l.23.32h.06l.03-.03v-.12l-.2-.15-.03-.14-.03-.03v-.09l-.06-.09-.12-.03-.09.03-.03.09.03.03v.06h.12v.03l.09.03ZM55.5,121.78l.09.03.06-.03.03-.12-.12-.12-.09.03-.03.12.06.09ZM55.5,115.05l.2.12.23-.03.09-.12-.09-.17-.09-.03-.06.09h-.12l-.09.06-.09.09ZM55.65,118.94l-.03-.03-.09.06v.03l.06.06.09-.06v-.06h-.03ZM55.62,107.88l.15-.03v-.06l-.09-.03-.06.12ZM55.88,117.8l-.17.06-.09.2h.03v.03h.03l.03.06h.75l-.06-.12-.52-.23ZM55.91,116.62l-.09-.03-.12.03.09.09h.09l.03-.06v-.03ZM55.91,117.54l-.06.09h.12v-.03l.03-.03-.03-.03h-.06ZM56.11,119.14h-.06l-.12.12h.15l.09-.06-.06-.06ZM57.59,119.23l-.35.58v.03l-.38.2-.67-.72-.15.06-.09.12v.03h-.03v.03l.2.26.15-.06.15.09-.2.32.12.29.15.03.06-.09-.06-.12.06-.12.61.09.12-.17.29-.03.03-.2v-.61ZM56.28,118.67l-.17-.38-.06.2.09.03-.03.2-.06.03.23-.09ZM56.37,117.49l.03.06.03.03.06-.06v-.06l-.03-.03-.09.06ZM56.55,118.91l-.17.2.35-.03.06-.38-.17-.17-.12.09.06.29ZM56.52,117.66l-.06-.03-.06.12.03.14.17.12.03-.09h.06l.03-.06-.06-.09h-.03l-.12-.12ZM56.78,120.59v-.09h-.09l-.06.09v.06l.15-.06ZM56.69,117.49l.09.12.12-.03.03-.03-.03-.12-.2-.06v.12ZM56.89,118.33h-.09l-.06.06h-.03v.03l-.03.03.38.43h.03l.03-.03-.23-.52ZM57.27,118.96l-.17.15-.35.41.12.12.29-.03.17-.41-.06-.23ZM57.13,117.28l.09.03.03-.09-.03-.06-.06.03-.03.09Z"/>
      <path class="cls-1" d="M87.03,106.12l-.03.43.03.87-.03.46-.03.23-.06.35-.09.2-.17.14-.35.06h-.46l-.87-.09-.46-.03-1.33.09h-.46l-.73-.06h-.44l-.2.03-.29.09-.12.17-.03.38-.12,1.71v.46l.12,1.74-.03.46-.12,1.74-.03.46.06,1.71v2.67l-.06,1.71.03.44.15,1.3.03.46-.09.35-.15.14-.38.06-.55-.03-.73-.09-.49-.03-1.31.09h-.46l-1.31-.09-.35-.03-.17-.09-.06-.32v-.49l.09-1.22.03-.46v-2.18l.03-1.74v-.46l.03-1.71v-.46l-.12-1.74-.03-.46v-2.21l-.06-1.71v-.41l-.09-.23-.29-.06h-.44l-.93.06h-.52l-.78-.06-.49-.03-.49.03-.67.03h-.44l-.23-.03-.32-.06-.17-.12-.12-.17-.06-.29v-.2l-.03-.46.06-.87v-.43l-.09-1.1.03-.46.09-.38.12-.2.17-.09.29-.06h.67l1.07.09h.46l1.68-.12h.46l1.71.15h.46l2.15-.15,1.68.03h.46l2.18-.03h2.15l.96-.06.49.03.23.03.35.06.2.12.15.2.06.35v.2l.03.43-.06.93ZM75.77,115.8l.15-.32-.03-.09-.06-.03-.17.38.12.06ZM75.74,107.62l.06.06.06-.06v-.06l-.06-.06-.06.12ZM76.29,122.45l-.15-.06-.15.09v-.03h-.12l-.06.06.06.15.12.09.12-.06.03-.12.15-.12ZM75.86,114v.06l.03.03.15-.03.12-.12-.29.06ZM76.09,121.4l-.06.09.03.03.12-.03.03-.03-.12-.06ZM79.92,114.03l-.09-.15h-.03v.09l-.61.12v-.23h.15l.32-.32-.06-.23-.12-.12v-.32l-.09-.09-.06.03v.06l-.15.17-.03-.23-.12-.12-.03-.17.32-.23.09-.2-.26-.06-.09-.12-.55-.12-.06.09.06.06h.09l.12.09h.15l.15.41-.44-.09-.26-.29-.09.32.9.75-.06.12-1.04.38.2-.29.17-.03.06-.14-.23.06-.23-.23-.17.17.09.14h-.03l-.03.03h-.03l-.03.03-.03-.03h-.03l.03-.03-.09-.12-.26-.03-.06-.7.35.2.03-.35-.26-.03-.06.06-.26-.09-.12-.17-.2-.06-.09.09-.03.15-.32.2h.2l.09.14-.03.2.09.2.17-.61h.2l.03.03-.2,1.04-.23.09.23.17.03.14-.23.09-.06.09.12.09-.15.2h-.2l-.06-.32-.09.09-.06.38.35.32-.03.12-.26-.03-.23.14.03.12-.06.12.03.12.12-.03.12-.23.2-.09.67.38.15-.29-.2-.61.35-.12v-.09l.12-.09-.12-.12v-.26l.2-.03.12.12.2-.29.03.17.12.09.12-.12h.26l.03.12-.12.26-.44.06-.17.41-.03.06v-.03l-.35.44.09.17h.44l.29.46.03-.2.03-.03.12.03.12-.06-.38-.84.15-.12.61.72.78-.81.15-.12.06-.29ZM76.06,112.55l.03.12.06.03.06-.03.03-.06-.03-.06-.09-.03-.06.03ZM76.18,113.4v.03l.15.06v-.06l-.15-.03ZM76.21,116.27l-.03.12.03.06.06.03.06-.06v-.09l-.06-.06h-.06ZM76.26,115.83l.06-.03.03-.06-.03-.06-.12.03v.06l.06.06ZM76.29,117.25l.17.06.15-.14.9-.46-.03-.03h-.03v-.46l-.09-.06-.17.06-.06.41-.23.15-.23-.15-.03-.12-.12-.06-.09.09-.03.15h-.03v.23l-.15.15.06.2ZM76.26,109.28l.12.12.15-.06.12-.49-.32.09-.06.35ZM76.64,109.71l-.03-.03h-.15l-.15.17.03.03.12.03.12-.09.2.03.09-.09-.06-.09-.17.03ZM76.38,107.97l.12.41.12-.15-.15-.12.15-.2-.23.06ZM76.96,121.34l-.03-.06h-.03l-.17.12-.06.29-.09.06h-.09l-.06.06.03.09.09.03.09-.03.12-.35.15-.09.06-.12ZM76.52,115.66l.09-.06-.09-.06-.06.06v.06h.06ZM76.5,116.99l-.03-.03v-.03l.03-.23.15-.06.12.32-.26.03ZM76.5,111.45l.03.17.29.06.12-.09v-.12l-.32-.15-.12.12ZM76.55,107.3l.15.23v-.17l.09-.09-.03-.12h-.15l-.06.15ZM76.93,123.35l-.23-.06-.12.12.09-.03.26.06v-.09ZM76.67,107.83h.09l.03-.09-.09-.09-.06.15.03.03ZM76.67,106.67l.06.03.06-.03.03-.14-.06-.03-.09.03v.14ZM76.87,115.69l-.12.03-.09.17.09.2.12-.41ZM76.79,116.15l-.09.12.09.23h.12l.06-.23-.06-.09-.12-.03ZM77.08,110.03l-.15.12-.06.17h-.15l.52.17v-.06h-.03l.09-.44-.06-.14-.15.03-.03.15ZM77.66,117.98l-.17-.2v.32l-.03.03-.15-.03-.2-.43-.26-.17-.09.38.26-.12.49.72.15-.49ZM76.87,109.19l-.06.03-.03.06.12.14.09-.12-.03-.09-.09-.03ZM76.99,111.25l.15-.09.23-.38-.15-.09-.29.12-.06.29.12.14ZM77.02,118.38v-.35l-.06-.03-.06.03-.03.17.15.17ZM77.1,119.54l.15-.03-.15-.09h-.12v.06l.12.06ZM77.1,109.45l.12.09.03.12.46-.38v-.06l-.49-.03-.12.26ZM77.13,106.26l.26.23.09-.09.17.03-.06.32.2.2.12-.06.03-.09-.09-.06v-.09l.03-.03.03.09.12.03.2-.12-.06-.06h.2l.06-.12.26-.03-.12-.52-.12.29-.38.29h-.17l-.17-.17-.12-.03.41-.09h.26l.12-.09-.29-.17-.09.2-.23-.09-.17.23-.12-.03-.15-.23-.23.23ZM77.39,107.68l-.15-.17-.09.17.15.14.09-.14ZM79.43,106.61l-.15.12v-.49l-.12-.06-.17.09.03.12h.12l-.2.55h-.12l-.09-.06h-.12l-.09-.26-.06.26-.35.2-.03.49-.12.09.03.15-.15.23.38,1.1.2-.03.09.2-.06.2.09.12-.03.12h-.17l-.41.35-.17-.12h-.12l-.03.03.17.17.23.06v.26l-.2.03-.26-.15-.09.15.29.32v.06l-.2.06-.09.2-.26.17.03.41.09.03.12.17.12-.03.06-.09-.17-.2.09-.17h.03l.12.12.35.03.15.2v.38l.17-.44-.12-.06.2-.41.12-.03-.12-.14h-.38l-.09-.17-.15-.09.44-.43.17.09.44-.26.06-.12-.26-.15.29-.32-.03-.23.09-.14-.06-.15h-.12l-.12.09-.09-.06-.06-.15.17-.43-.2-.2v-.12l.23-.03.03-.03.06.14.23.06-.23-.23.06-.06v-.06h-.03l-.03-.09-.49-.35.26.09.12-.12-.2.03-.09-.09h-.09v.09l-.12-.09h-.03v-.38l.38-.06.41.26.29-.58.23-.06-.12-.12ZM77.51,122.62l-.03-.12h-.26l.12.17.12.03.06-.09ZM77.31,117.46v.09l.12.09h.15l-.26-.17ZM77.45,107.25l.06.06.09-.09v-.26l-.06-.06-.15.06.06.29ZM77.39,108.55l.15.06.09-.12-.03-.06h-.2v.12ZM77.89,115.6l.06-.06-.06-.06-.23-.06-.17.17v.49l.35.2.03.14-.06.06.03.06.09.03.06-.09h.12l.09-.06h.26l.03.2.32.17.35-.14.03.03.12-.35-.06-.12h-.03v-.03l-.03.03-.2-.09.23-.12-.23-.06-.2.12v.14l-.09.09-.26-.09-.15.06-.23-.2h-.12l-.03-.49ZM77.77,117.34l.2-.2-.03-.12-.17.06-.15.17.15.09ZM77.86,112.12l.06-.03v-.06l-.06-.06-.06.06v.06l.06.03ZM77.83,112.7l.35.12.12.17.06-.2-.35-.2-.17.12ZM78.03,120.13h-.12l-.09.03.12.03.09-.06ZM77.97,109.65l.06-.17.09-.03v-.06l-.2-.12-.06.03v.52l.12-.17ZM77.92,105.71l.03.12.09-.09.03-.12h-.06l-.09.09ZM77.95,105.16l.17.26.09-.03-.09-.49-.17.26ZM78.15,117.63h.15l.15-.17.03-.23-.12-.06-.29.12-.09.12.17.23ZM78.03,113.63l-.03.03v-.03h.03ZM78.18,108.23l-.06.03-.03.06v-.09l-.06-.09v-.03l.09-.14.03.06.06.03v.06l-.03.03v.09ZM78.21,108.49l.17.09-.03.03h-.03l-.06.06-.06-.03-.06.03.06-.17ZM78.35,122.79l-.03-.06h-.06l-.09.06v.09l.09.06.09-.15ZM78.38,110.03h.03v.26l-.06-.14v-.15l.03.03ZM78.35,119.08l.32-.29.32.17.2.03-.12-.2.12-.32-.03-.06-.06-.03-.06.03-.12.23-.32-.12-.26.55ZM78.76,123.46l-.09-.12h-.06l-.06.06h-.09l-.06.09.09.06.2-.09h.06ZM78.44,104.64l.44.55h.17l.15-.14-.03-.12-.73-.29ZM79.05,111.25v-.75l-.09-.06-.12.17.03.06-.06.15-.15.03-.09-.06h-.09v.09l.06.03.17.32.32.03ZM78.99,117.95h-.29l-.06.06.12.29.15-.03.06-.14.09-.03-.06-.14ZM78.73,105.36l-.06.06.06.12.12-.03.03.03.26-.06.03-.09-.12-.06-.2.09-.12-.06.09-.06v-.12l-.09.03-.06.09v.06h.06ZM78.96,113.6l.03.09-.12.15-.17-.03.15-.23.12.03ZM78.76,111.51l-.03.12v.09l.09-.03.03-.09-.09-.09ZM79.28,121.02l-.12-.09-.06-.09-.32.41v.06l.09.03.23-.12.12.03.06-.23ZM78.96,122.36l-.03-.12-.09-.03-.06.23.09.06.09-.14ZM78.87,104.4l.03.09.09.03.03-.03-.03-.12-.12.03ZM79.14,117.75l.09-.12-.06-.12h-.29l.09.15.17.09ZM79.63,108.29v-.09l-.06-.03-.55.55.26.2v-.35l.35-.29ZM79.22,105.48l.09.12-.26.23v.03h.03l.03.06.09.03.09-.03.09-.46-.15.03ZM79.19,111.66l-.12.12.03.09.06.03.09-.2-.06-.03ZM79.31,113.63l-.17-.03-.06-.06v-.09l.03-.03v-.03l.2.23ZM79.34,109.65l-.12-.06-.12.03v.09l.12.03.12-.09ZM79.16,118.15l.17.03.03-.06-.09-.09-.12.12ZM79.72,107.45l-.32-.09-.12.03.03.12.26.06.09.12.06-.23ZM79.66,123.26l-.09-.32-.26-.06.12.44.12.03.12-.09ZM79.43,107.97h.03l.03-.06-.06-.09-.09-.03v.12l.09.06ZM79.43,107.33h.06l.03-.03.03-.09-.09-.03-.06.12.03.03ZM79.43,109.57l.23.17.03-.03v-.06l-.09-.09h-.17ZM79.63,111.25l.12-.23-.17-.23-.06.81.15-.26-.03-.09ZM79.6,106.87l-.06.06.03.09.06-.03.03-.12h-.06ZM79.74,110.06l-.03-.12-.12-.03-.03.06.12.12.06-.03ZM79.92,119.75l-.06-.06h-.12l-.06.09.06.06.17-.09ZM79.89,104.98l.09.06-.03.29,1.16.2.2-.15-.87-.03-.09-.12v-.15l.15-.03.03-.15-.06-.12-.55-.09-.03.26ZM79.98,108.03l.06-.06.09-.17-.15-.23-.06.46h.06ZM79.95,106.64v.12l.06.03.06-.03.03-.06-.06-.09-.09.03ZM80.15,108.32l-.06-.09h-.09l.15.2v-.12ZM80.82,106.09l-.23-.03.12.17v.03l-.26-.14.03-.03-.09-.12.03-.12.06-.03-.03-.06-.09-.03-.06.06-.23.06.06.12.15.03.03.38.06.06-.12.46.03.09.06.03.38-.61v-.06l.12-.06v-.2ZM80.67,104.9l.12.09.15-.06.26-.03-.17-.32.09-.06-.17-.09-.17.03-.03.09.06.09-.09.09-.03.17ZM81.37,106.06l-.03-.17-.2-.03-.26.14.29.15.2-.09ZM81.28,107.83l-.12-.17-.06.17.03.15.06.03.06-.03.03-.15ZM81.8,105.8l-.15.15.12.12.03-.12v-.15ZM81.89,104.96l.03-.06-.03-.06-.15.03-.06.14.06.12.12.03.06-.09-.03-.12ZM82.15,108l-.12-.03h-.06l-.03.06.09.09.12-.12ZM82.93,107.22l-.15.17-.15.09-.49-.26.12.2-.15.29.03.06.12.03.12-.23.23.15.32-.26v-.23ZM82.99,105.33l-.23-.2-.09-.06-.17.14.06.12.2.12.23-.12ZM83.75,105.8h.2v-.06l-.09-.12-.23-.03-.17-.2-.26.03-.09.15.09.14-.03.06.46-.09.12.12ZM84.24,106.2l-.12-.09-.15.03-.09.06v.06l.09.09.23-.09.03-.06ZM84.15,106.64l-.12-.06-.12.03-.03.03.03.06.23-.06ZM84.33,105.01l-.12-.03-.09.06-.09.43.17-.09.12-.38ZM84.68,106l.12-.03.09-.09-.03-.06h-.03l-.15.17ZM84.68,106.32l.12.14h.15l-.09-.14-.12-.03-.06.03ZM85.02,107.3l-.12-.09-.12.03-.09.12.03.12.17-.03.12-.14ZM85.75,105.91l-.06-.03-.06.03-.03.06.03.06h.09l.03-.03v-.09ZM85.98,105.19h.06l.03-.03-.06-.09h-.06l-.03.06.06.06ZM86.21,106.06l-.03-.06-.12-.03-.03.06.09.06h.06l.03-.03Z"/>
      <path class="cls-1" d="M118.14,111.45l-.12,1.8.09,1.3.06.93-.03.44-.03.67-.06.43-.12.7-.09.46-.12.67-.12.43-.23.61-.15.41-.26.61-.2.41-.38.58-.29.38-.35.38-.38.32-.58.46-.38.26-.58.35-.38.2-.61.29-.44.15-.64.23-.44.12-.67.12-.44.09-.9.06h-1.33l-.67-.06-.44-.03-1.6-.17-.46-.09-.26-.03-.46-.15-.23-.09-.46-.2-.64-.29-.44-.26-.44-.29-.75-.64-.32-.32-.38-.49-.26-.35-.46-.75-.26-.41-.23-.44-.2-.46-.17-.43-.12-.41-.12-.44-.12-.64-.09-.49-.06-.49-.06-.99-.03-.46.09-1.77v-.46l-.06-1.77v-.46l.09-1.77v-2.7l-.06-.93v-.49l.03-.49.09-.46.2-.26.38-.09.96-.06,1.1.09h.46l.96-.03.44.03.67.03.38.09.23.23.09.38.03.41v.44l-.06,1.13v.46l.09,1.77v.46l-.03,1.77v.46l-.09,1.77v.46l-.03,1.77.03.46.06.72.09.46.17.64.17.44.29.67.29.35.46.49.38.23.64.23.44.12.75.06h.46l.75-.15.44-.12.55-.26.38-.23.46-.41.29-.35.32-.61.2-.43.15-.46.09-.46.12-.87.03-.46-.12-1.77v-.46l.09-1.8v-.46l.06-1.77v-.46l-.06-1.8-.03-.46-.09-1.22v-.73l.12-.41.26-.23.38-.09h.61l1.48.12h.46l1.16-.09h.46l.44.03.38.09.23.2.03.35.03.87v.44l-.03.67v.46l.09,1.8v.46l-.06,1.77v.46ZM99.78,113.19h.17l.03-.09-.09-.32-.23.14-.06-.06-.06.14.03.17h.09l.06-.06.06.06ZM99.61,108.61h.06l.06-.06v-.03l-.03-.03-.09.06v.06ZM99.87,110.18h-.15l.03.17.41.03-.29-.2ZM99.98,112.18l-.09.03-.06-.03-.03.03.03.12.12.03.09-.06.03-.09-.09-.03ZM100.07,113.83l.06-.06h.23l.06-.99-.12-.15.06.73-.23.09-.03-.12-.2.03-.03.46h.2ZM100.16,111.63l.06-.17-.09-.2-.2.29.06.12.17-.03ZM100.3,116.18l-.12-.03-.06.03-.03.06.09.06.12-.12ZM100.27,110.7l-.15.17.03.23.12.06.12-.09h.06l-.12-.38.09-.12v-.12l-.03-.03h-.03l-.09.09v.17ZM100.27,116.91l.15.03.15-.06-.09-.2-.17-.09-.09.14.06.17ZM101.06,115.57v-.23l-.29.29-.49-.23.12.2-.12.29.03.06.12.03.09-.23.23.12.32-.29ZM100.33,108.38l.03.06h.03l.06-.03v-.09l-.03-.03-.06.03-.03.06ZM100.33,108.78l.06.03.06-.03v-.06l-.03-.03h-.09v.09ZM100.48,109.71l-.06-.06-.06.03v.03l.15.12-.03-.12ZM100.68,116.06l-.12.03-.06.12-.12.06.06.12.15-.03.12.03.09-.03-.12-.29ZM100.77,118.33l-.2.17.23-.03.17-.14-.03-.12.06-.12.26.06.12-.09.35.12.12.44h.03l-.03.09h.29l.12-.17-.09-.44-.38-.14-.06-.12.03-.06-.03-.06h-.09l-.23.2-.23.03-.06-.17-.35-.12-.35.29v.26l.09.09h.03l.03-.03.2.06ZM100.53,114.41h-.06l-.03.12.06.06v.06l.03.03-.06.09.09.06.06-.06-.03-.09.03-.03v-.15l-.09-.09ZM100.59,112.21l.15.09.09-.09h-.23ZM102.86,122.5l.23.03.17-.23.09-.09h.12l.06-.06-.06-.09h-.09l-.15.09h-.09l-.09.12-.26-.06-.23-.26.35-.17.29.12.15-.06-.06-.03-.12-.29-.32-.14-.17.12-.67-.03-.03-.15.23-.23h.03v.03l.32-.7v.35l-.09.12.03.17.12-.2.35.06v-.23l-.15-.06.03-.03v-.03l.03-.03v-.03l.17.06.23-.12.44.46-.38.06h.03v.03l.15.23.2-.14v-.09l.23-.12.09.03.23-.17.12-.43-.15.12h-.09l-.29-.26.2.41h-.03v.09l-.15.15v-.03h-.03l-.38-.64v-.29l.09-.09-.23.06-.06-.06.03-.03v-.03l.15-.09v-.03l.03-.03h-.03l-.03-.03h-.06l-.03-.12.06-.12.17-.06.12.2h.03l.03-.03h.03l-.09-.41-.2-.03-.09-.09-.12-.03-.03-.12.23-.06.15-.23-.06-.09v-.12l-.06-.06-.09.06-.03.2-.15.17-.7-.09-.03.32.41.46-.23.12-.06.29.12.06.12.2-.17.12-.15-.03v.35l-.26-.2-.15.29-.15.03-.09-.14.03-.26-.03-.06.35-.17.03-.46-.03.03v-.03l.03-.03v-.2l.12-.15v-.14l-.12-.12-.2.03-.15.12h-.03l-.03.03-.12-.09v-.03l-.15-.15h-.03l-.03-.09-.09-.03-.03.06.06.2-.15.03-.06.09.06.09v.03h.03l.58.52-.09.14-.78-.41-.49,1.13.2.49.06.03v-.12l-.06-.03.12-.23.38-.17.12.29-.12.09-.06.17.12.43.17.15.17.03.06.06.09.06.03.12.17-.03-.06-.06v-.23l.17.17.15.03.06.06h.03l.06.06-.03.49.17.29v.03l.17-.03.06-.12ZM100.65,110.26l.09.17h.09l.03-.09-.06-.17-.09-.03-.06.12ZM100.85,111.05l-.17-.09v.17l.17-.09ZM101.03,113.13l-.17.2h-.09l-.03-.03h-.06l.12.32.09-.06v-.12l.32-.06.03-.03v-.03l.41.06.06-.03.03-.06-.58-.23-.06-.12-.17.03v.2l.09-.06h.03ZM100.94,112.7l-.09-.15-.15.03v.17l.15.2.09-.26ZM100.74,109.74l.12.03.06-.09-.03-.12-.12.06-.03.12ZM100.94,114.35l-.03-.09-.09-.03-.06.03-.03.09.03.09.06.03.09-.03.03-.09ZM101.43,115.72l.03-.15.26.03.15-.2-.03-.09h-.09l-.03.06-.09.03-.12-.44-.09-.03-.06-.23-.44.15.38.12.17.26-.15.49-.17.12.06.12.15.06.17-.23-.12-.06ZM100.97,116.96l.03.26.15.03.03-.06.29-.17-.06-.06-.15-.26-.15.03-.15.23ZM101.06,110.29l.03.09h.06v-.09l-.06-.09-.03.09ZM101.43,113.66h.06l.06-.06-.03-.06h-.09l-.03.06.03.06ZM101.46,117.22l.06.09.17-.09.09-.17-.15-.06-.17.23ZM101.49,109.51l.03.12.12.06.09-.03-.03-.15-.15-.12-.06.12ZM101.64,121.02l.23.15v.06l-.35-.12h.06l.06-.06v-.03ZM101.84,111.13h-.17l.09.09.09.03.06.12-.17.41.17-.09.23.09.06-.03v-.09l-.17-.09.09-.17-.03-.09-.23-.17ZM101.78,113.92h-.03l-.09-.06v.09l.06.03.06-.06ZM101.84,120.65l.12.29-.12.03-.15-.12h.06l-.03-.23h.03l.03.03.09-.06-.03.06ZM102.07,116.3l.15.38h.03v.03l.26.09.06-.09v-.17l-.26.12-.46-.72.03.2-.15.29.15.17.03-.15v-.17l.17.03ZM101.78,116.73l.12.09.15.03v-.06l-.26-.06ZM102.33,113.8h-.2l-.03.17-.03.09.06.09.09-.03-.03-.12.15-.2ZM102.94,116.82h-.09l-.06.06h-.03l-.03.03v.03l-.64.44.03.61.12.03.15-.06-.03-.41.17-.17.26.09.03.12.12.03.09-.12v-.12l.03-.03v-.15l-.06-.06.09-.17-.15-.15ZM102.3,112.47l-.12.12h.15l.12-.03.03-.03-.03-.06h-.15ZM102.39,113.4l-.17.17h.38v-.06l-.2-.12ZM102.45,114.67l-.12-.12.03.17-.06.09.03.06h.06l.06-.2ZM102.33,116.04l-.03.17.03.14.06.03.06-.03.03-.17-.15-.15ZM102.36,111.89h.06l.06-.06-.09-.09-.03.15ZM102.54,114.06l.06-.09-.03-.03-.09.03-.03.09h.09ZM102.77,117.89l.06-.12-.03-.12-.09-.06-.12.03-.03.2.09.09.12-.03ZM102.77,117.11l.15-.03-.03.32-.06.03-.17-.29.12-.03ZM102.68,114.47l.26-.06.03-.2-.17.2-.09-.03-.03.09ZM102.74,113.48l.17-.12-.17.03v.09ZM102.91,121.14l-.17-.09.06.2.41-.06.06-.2-.35.14ZM102.77,118.3l.12-.06v-.06h.03v-.06l-.12-.15-.03.26v.06ZM103.06,118.21l-.03.03h.09l.03-.03v-.03l-.09.03ZM103.15,122.71l.2.12.03-.03-.2-.23-.09.03.06.12ZM103.17,117.66l.06.03h.06l.03-.06-.09-.12h-.03l-.03.15ZM103.26,118.09l-.03.03.03.03.12-.06h-.12ZM103.96,123.46l-.38-.2-.09-.12-.17-.06.15.23h.09l.15.2.26-.06ZM109.38,123.66l-.17-.14-.15.03v.12h-.26l-.23-.14h-.15l.03-.32.26-.12-.32-.06-.15-.29-.49.03-.09-.12-.12.03-.17-.12h-.29l-.03.06-.87.14.03.15-.03.03v.03l-.2.03-.17-.09-.23.06.03-.17-.26-.35v-.09l.17-.23-.06-.06-.12.06-.03.06-.06.03-.09.2h-.12v-.03l-.15-.06.06-.2.2-.17-.09-.12-.15.12h-.26l-.15-.67-.23-.15h-.09l-.06.06-.09-.03-.12.06-.03.12.03.06h.06l.03-.03h.15l.12.09v.06l-.15.03-.2.32-.61-.2v.06l.35.32.12-.06.23.35-.03.09.2-.03.15-.32.32-.06.23.58-.15.12.17.49.15.06.2-.14.2.09.12.17h.2l.12.09.15-.03.03-.12-.09-.12.23-.09.38.23.09-.12h.32l.03.2.2.12.17-.06.17-.38.15-.09.06-.15.35-.03.09.12-.2.64.55.23.09.23.06-.12-.09-.12.67-.06.06-.12ZM103.52,122.39l.03.12.06.03.12-.06-.2-.09ZM103.7,121.46l-.06-.03-.06.06v.03l.03.03h.12v-.06l-.03-.03ZM104.65,123.17l-.17-.2-.12-.03-.09-.12.17-.23h-.49l-.17.26.73.35.15-.03ZM103.93,119.57l.03.06.06-.03.06-.06v-.03h-.06l-.09.06ZM104.45,120.94l.12.03.26-.2-.03-.15-.17-.06-.12.09-.06.29ZM104.48,120.1l.03.03v.03h.03l.09-.09-.03-.03h-.06l-.06.06ZM104.89,121.08l-.17.03.03.17.2.35.15-.09.03-.29-.23-.17ZM105.23,123.93l-.06-.03-.2.09v.03l.23.03.03-.03v-.09ZM105.26,121.55l.03.12.23.12.17-.06-.03-.12-.09-.06h-.03l-.12-.2.03-.12-.2.32ZM105.61,123.81l-.15.09-.06.12.03.03.15-.06.03-.17ZM105.52,123.72l.06-.09v-.12l-.03-.03-.06.12.03.12ZM105.9,122.53v.06l.09.03.15-.17-.03-.06-.09-.03-.41-.06.29.23ZM105.81,121.17l-.06.14.06.09.09-.06v-.12l.03-.03.03-.17-.12-.14h-.06l-.03.12.06.17ZM105.99,121.75l-.12.03v.09l.35.41.03-.09-.03-.09.09-.29-.23-.14-.09.09ZM106.16,121.49l.09.09.09-.03.03-.12-.06-.03-.15.09ZM107.12,124.19l-.06-.09-.61-.52-.23.17.32.09.38.41.15.03.06-.09ZM106.28,121.14h.06l.41.17-.03-.29-.32-.12-.12.09v.14ZM106.77,122.82h.03l-.03.09-.03.03v.03h-.06v-.03l-.06-.06.03-.14.12.09ZM106.8,122.21h.03l.03.06.03.03h.06l.03-.2-.12-.03-.06.14ZM107.35,122.76l.03.03v.03h-.03l-.03.06h-.12l-.03-.03-.09.03-.06-.12.2-.06.06.06h.06ZM107.06,121.26l.06.12.03-.09h.09v.03l.09.06-.06-.23-.17.06-.03.06ZM107.41,121.4l.03.12h.06l.06-.03.03-.06-.17-.03ZM107.61,121.87l-.09.06-.03.09.12.09.17-.14-.17-.09ZM107.53,120.56l.03.09h.06l.06-.09-.12-.03-.03.03ZM107.7,121.43h.17l.09.06h.12v-.15l-.17-.06-.2.14ZM108.13,122.1l-.15.09.09.09.29-.06-.06-.14-.17.03ZM108.22,124.01l-.03-.03h-.12v.06l.09.06.06-.03v-.06ZM108.51,121.4l.03.09h.12v-.09l-.06-.06h-.03l-.06.06ZM108.66,122.47l-.12.06v.12l.12.17.06-.09h.03l.03-.12-.12-.15ZM109.53,122.53l-.09-.06h-.03l-.17.03v.06l-.06.03.03-.26-.17-.03-.06-.06.2.61.12.06.06-.03.09-.29.09-.06ZM109.32,121.75l.03.06h.09l.12-.06.03-.15-.12.12-.15.03ZM109.7,122.42l-.03-.09-.09-.03-.12.06.23.06ZM110.34,123.49l-.09-.12-.03.03-.06.09-.35-.12.17.17.35-.06ZM109.9,122.39l.03.06.2-.09.23-.15-.29-.06-.17.23ZM110.31,122.82h-.12l-.03.03v.03l.09.06.12-.03-.06-.09ZM110.77,121.52l-.2-.2-.06-.09-.12.03-.03.12.03.03v.03l.17.15.2-.06ZM110.72,122.39l-.35.55.06.17.17.09.12-.09v-.73ZM111.12,122.76l-.06-.09h-.03l-.06.09.03.06h.06l.06-.06ZM111.47,120.56l-.09-.03-.06.09-.26.09.06.06.12.03.09-.09h.03v-.03l.09-.03.03-.09ZM111.44,121.63l-.17-.06v.14l.06.06h.09l.03-.15ZM111.73,122.79l-.09.03-.03.09.12-.12ZM112.51,121.75l-.03-.03h-.06l-.03.09-.23.09-.03.09.03.12.12.03.06.06.09-.06.09-.38ZM112.2,120.39l.03.14.03.03.06-.03.03-.06-.09-.09h-.06ZM112.4,123.11h-.03l-.03-.03-.03.12h.06l.03-.03v-.06ZM113.24,112.73l-.03.03v.06l-.09.12.03.12.06.03.15-.15v-.2l-.03-.03.03-.12-.09-.09-.09.09.06.14ZM113.33,115.6l-.15-.12.03.12v.12l-.09.09.03.09h.09l.09-.29ZM113.47,114.38l.35-.09.09-.32-.17.12h-.35l-.06.17.15.12ZM113.65,111.08l.15.12h.09l-.03-.17-.2.06ZM114.11,119.52l-.12-.09h-.12l-.06.09.06.12-.06.14.15-.03.06-.14.09-.03v-.06ZM114.02,120.3l-.12-.03-.09.06.06.55.06.03.09-.17-.09-.26.09-.12v-.06ZM114.23,116.24l-.15.06-.12.2.12.09.15-.06v-.29ZM114.17,106.81l.03.17.17-.26-.06-.03h-.06l-.09.12ZM114.34,113.48l.17.09.12-.03.03-.12-.12-.12-.15.06-.06.12ZM114.49,120.36l-.03-.03h-.03l-.09.06.03.03h.09l.03-.06ZM114.69,118.38l-.03-.03v-.03l-.12.03-.09.12.23-.09ZM114.81,108.61l.06-.14-.06-.06-.32.12.03.15.15.06.09.2.12-.14-.06-.17ZM115.91,109.97l-.26-.38-.12-.03-.06-.12.03-.09-.09-.06h-.09l-.06.09v.12l.58.52.06-.06ZM115.82,112.61l-.15-.29-.23-.2h-.09l-.03.09.06.09-.03.35.09.09.15.03.12-.12.12-.03ZM116,109.02l-.03-.09-.06-.03-.06.17.06.03.09-.09ZM116.14,114l-.03-.2-.03.12.06.09ZM117.07,113.34l-.03-.09-.06-.03-.09.03.09.14.09-.06Z"/>
      <path class="cls-1" d="M150.65,114.85l-.03.49-.03.7-.09.46-.2.67-.15.46-.17.44-.17.46-.17.49-.17.43-.32.64-.23.38-.41.46-.29.32-.49.46-.64.64-.38.32-.55.44-.38.23-.58.32-.38.17-.64.23-.43.15-.46.12-.46.09-1.77.26-.43.03-.64.06h-.46l-.93-.03-.75-.06h-.46l-.93.06-.72.03-.49.03-.44-.03h-2.03l-.43-.03-1.25-.12-.23-.12-.15-.15-.06-.32-.03-.46.03-.23.06-.87v-.41l.03-.67v-.43l.03-.46v-.46l-.03-1.54v-.46l-.06-1.54.03-.44.03-.64.06-.44.03-.49v-.46l-.06-.75-.03-.49v-.26l-.03-.49.12-1.54v-.46l-.03-1.54v-.46l-.09-1.54v-1.13l.03-.46.09-.43.06-.32.12-.17.32-.09.49-.06.44-.06.46-.03,2.55.03h.46l1.39.09.23.03h.52l1.22-.06.44-.03h.46l.73.06.93.06.46.06.75.12.46.09.44.12,1.04.38.43.2.44.23.41.23.96.67.38.32.35.29.64.61.29.29.26.32.2.38.32.64.17.44.15.46.17.46.15.46.12.46.12.64.09.46.09.49.06.46.03.7.03.46.03.49ZM132.14,122.71l-.12-.09-.17.03-.12-.03-.06.06v.15l.12.12.12-.03.14-.17.09-.03ZM132.29,121.63l-.09-.06h-.06l-.03.06.03.06h.12l.03-.06ZM133.13,121.69l-.06-.09-.2.09-.23.35-.12-.03-.06.09.09.12h.12l.46-.52ZM134.26,123.55l-.03-.06-.06-.03-.09.03-.03.09.09.12.12-.15ZM135.25,122.07l.29.03.09-.09.03-.14-.14-.2-.44.38v.06l.09.03.09-.06ZM135.97,124.01l-.12-.09h-.2l-.03.03-.12-.03-.06.09.09.09.12-.06.2.09.12-.03v-.09ZM135.77,105.51l.09.03.03-.03v-.06h-.06l-.06.06ZM136.09,120.65h.09l.06-.06-.03-.03-.12-.03-.03.06.03.06ZM136.41,122.85l-.03-.09-.09-.06-.12.15.15.17.09-.17ZM136.44,105.94l.06-.03v-.06l-.03-.03h-.03l-.03.03v.06l.03.03ZM139.98,119.6l.67-.03.46-.09.49-.14.46-.17.43-.2.38-.26.52-.46.29-.35.35-.55.2-.44.17-.49.12-.44.12-.64.03-.41.03-.67v-.93l-.03-.46-.09-.67-.12-.44-.06-.17-.23-.44-.43-.61-.15-.14-.29-.32-.32-.32-.35-.26-.64-.38-.41-.17-.41-.09-.46-.09-.73-.03-.49-.03h-.73l-.64-.03-.44.03-.64.09-.32.09-.14.15-.09.35-.03.26-.03.43.06.87.03.46.06.64.06.46.03.46v.46l-.03.64v1.39l-.03.49-.03.46-.06.64v.41l-.03.67.03.43.09.7.12.32.17.14.35.03,2.7-.17ZM136.52,105.56l.03.03h.03l.06-.12-.03-.03-.09.06v.06ZM136.7,121.43l.12-.09-.23.06.12.03ZM137.19,123.78l-.09-.29-.29-.09.12.49.15.03.12-.15ZM136.93,104.93l.06.06v.23l.96.06.15-.12-.32.03h-.38l-.09-.09v-.12l.12-.03-.03-.2-.46-.03v.2ZM137.31,105.48l-.06-.03-.09.06.03.23h.06l.09-.06-.03-.2ZM138.15,106h-.06v.06l.2.06.09-.09-.15.03-.09-.06ZM138.58,124.07l-.03-.09-.26-.06-.11.14.23-.06.09.09.09-.03ZM138.76,121.14l-.03-.03h-.03l-.06.03.03.12.03.03.06-.06v-.09ZM138.82,105.91h.12l.12.03.09.09v-.2l-.26-.03-.06.03v.09ZM138.93,106.14h-.06v.09l.09.06.03-.03v-.03l-.06-.09ZM139.19,123.2l-.06-.12h-.26l.09.15.17.09.06-.12ZM139.45,121.26v-.2l-.15-.15-.12.03-.06.17-.23.58.55-.43ZM139.08,105.01l.03.09.09.06v-.09l-.06-.09h-.03l-.03.03ZM139.71,122.01l-.03-.09-.23.03-.26.06.26.17.26-.17ZM139.45,121.29l.03.12.12.06.06-.06-.09-.09-.12-.03ZM140.15,121.05l-.06-.26-.38-.06.03.15.12-.09.29.26ZM140.15,122.18l-.2-.14-.03.09.12.09.12-.03ZM140.15,104.61l.03.15.15.03.06-.12-.17-.17-.06.12ZM140.61,122.5l-.09-.43v-.26l-.09-.09-.06.03-.12.26.2.09-.09.23.23.17ZM145.95,120.59l-.03-.12.06-.09v-.12l-.12-.06-.09.03-.06.26-.17.06-.03-.03.03-.17-.23-.29.06-.26.23-.2-.41.12.03.14-.43.12-.09-.06-.06.2.29.29-.09.17.03.17-.58-.12-.03-.17-.35-.29h-.15l-.03.32-.44-.12-.14.14h-.17l-.12.12.06.12.12.03v.14l-.12.12-.03-.03-.12-.03-.03-.03h-.12v.12l-.03.03v.03l-.2.09-.09-.23-.17-.09-.41.78-.35.12-.12-.12-.06-.26.17-.46-.49-.12-.09-.32.03.26h-.35l-.03.23.09.06.12-.03v-.09l.09-.03.17.2h.06l.06.32-.09.03-.06.09.09.06.09-.03.03.03v.03l.2.26.52-.09.12.12.15-.06.23.09.23-.06.14-.2.15-.03.26-.29h.03l.06-.09-.09-.12v-.09l.12-.14.23-.06.06-.12.12-.06.09.17.43.12.06.06v.32h.09l.06-.23-.09-.23.23-.12.14.15.03.32h.17l.06-.49h.03l.03-.03.7.12.29-.29ZM140.5,106.26l.06.03.06-.06.09-.12-.09-.2-.12.35ZM140.9,122.18l.06.06.09-.06-.09-.32-.12.23.06.09ZM141.11,123.4l-.03-.06-.06-.03h-.12l-.06.09.06.06h.14l.06-.06ZM140.9,104.9l.06.09.09-.09-.12-.03-.03.03ZM141.22,120.47l-.12.03v.06l.06.06.12-.03-.06-.12ZM141.25,105.83h.09l.17-.03.23.2h.09l.17.38.06.03.06-.09-.06-.64-.12-.12h-.17l-.06.06.23.09-.46-.03-.06-.09v-.03l-.03-.03-.06.03-.09.26ZM141.69,122.47l-.12-.06-.12.06h-.12l-.06.06.09.14.26-.12.06-.09ZM141.66,107.16l.09-.06-.09-.09-.03.29.15.12-.12-.26ZM142.12,123.23l-.17.06-.12-.06-.12.03.03.15.17.03.2-.2ZM142.24,122.68l.03-.12-.17-.06-.15.2.2.03.09-.06ZM142.41,120.36v-.03h-.03l-.23-.17h-.06l-.03.09.38.29h.03l.14.17-.03-.26h-.12l-.06-.09ZM142.47,121.6l.09.09-.09.03-.06.06-.17-.06.03-.03v-.06l.06-.03.03.03h.09l.03-.03ZM142.27,123.2l.12.03.06-.03v-.03l-.06-.06h-.06l-.06.09ZM142.47,124.16l-.03-.12-.09.03-.03.09.12.03.03-.03ZM143.05,123.26l-.17-.09-.12.17-.23-.12.15.23.38-.2ZM142.85,121.43l.03.15-.03-.03-.06-.03-.03.03h-.03v-.2h.03v.03h.03l.06.06ZM142.85,122.36l.14-.06v-.14l-.12-.06-.06.03.03.23ZM142.91,106.75l.03.03.12.15v.03l.12-.03.09.09v.03l-.17.17.09.23.09.03.06-.06-.03-.09.03-.06.41.15.09-.06.2.09.14-.41-.46.29-.26-.14-.26-.58-.26.12v.03ZM143.08,119.69h-.03l-.06.03-.06.12.09.17.09-.17-.03-.14ZM143.28,120.1l-.12-.06v.12l.09.09h.03l.03-.03-.03-.12ZM143.2,106.12l.12.06.2-.12v.03l.17.23.09.03.26-.09.09-.14h-.09l-.09.06h-.15v-.03l-.43-.41v-.03h-.03l.03.17-.17.17v.06ZM143.31,119.66l.06-.06-.03-.15-.12.09v.09l.09.03ZM143.63,121.55l.41-.26-.46-.03-.06.03-.03.23.15.03ZM143.54,121.84l.14.14.06.2h.29l.03-.14.09-.09-.26-.2-.29-.03-.06.03v.09ZM144.33,122.88l-.12-.12-.06.03-.55.17.23.23.26-.09v-.03h.15l.09-.2ZM144.27,118.94l-.26.09-.06.09-.23.09-.06.29.61-.55ZM144.3,120.13v.06l.09.12v-.03h.03l.03-.03.03-.17.09-.09-.2-.44-.41.26-.06.12.03.03.03.12h.09l.03.03h.03v-.03l.03-.03h.06l.12.09ZM143.98,122.36l-.09.06.03.12.03.03.09-.03.06-.17h-.12ZM145.02,122.07l-.09-.58h-.03v.06l-.49.17-.09.12.09.12h.52l.09.12ZM144.79,122.65l-.03-.12-.12-.06-.09-.23-.12-.03-.06.12.17.32.2.03.03-.03ZM144.65,119.17l.12-.09-.03-.06-.17.03-.03.06.12.06ZM144.88,118.41l.09.03.03-.09.23-.06-.17.55-.35-.09-.03.03-.06-.03.06.09.12.09v.06l.03.03v.03l.26.32-.03.12.06.06h.09l.03-.09-.26-.43.06-.06v-.03l.32.26.09.35.23-.14-.38-1.13.12-.09,1.13.32.09-.17-.03-.03-.03-.12-.23.03-.17-.12v-.09l.23-.17.41.14.38-.35.46-.29v-.17l-.17-.15-.23-.03-.03-.03-.03-.35-.09-.12-.06.03v.12h-.03l-.03.03-.23-.06v.12l-.03.03.09.75-.2.06-.26-.93-1.25.49-.17.26.7.23-.03.12-.41-.15-.09.03-.12.55-.09.09v.15ZM144.7,109.19h.06l.03-.03.06-.03-.12-.03-.03.09ZM144.73,119.57l.17-.12-.09-.06-.06.06-.03.12ZM144.96,107.8l.09.09v.03l.2.09.06-.06-.06-.09h-.12l-.09-.14h-.09v.09ZM145.11,108.35l.06-.03.03-.09-.03-.06-.17-.03.03.17.09.03ZM145.08,109.25h.03l.03.03.06-.03.03-.06h-.03v-.03l-.06-.03-.06.09v.03ZM145.78,121.11l-.17-.06-.12.03-.23.03-.03.03h-.03l-.03.03.03.17.32.12v-.03l.23-.14.03-.17ZM145.78,118.04l-.09-.09h.03v-.03h.12v-.03l.06.06h.03l.06.06-.2.03ZM145.81,119.84l-.06-.03-.06.06.03.09h.09l.03-.06-.03-.06ZM145.92,119.08l.03-.23-.2.14.2.38h.23l-.26-.29ZM149.05,117.6h-.14l-.23.26-.17-.09-.26-.46h-.03l-.17-.17-.26.23-.06.67-.38-.03-.03.06-.14.06.09.14-.15.29-.2-.09-.03-.14-.55.29-.32-.09-.12.09.23.12.06.32.23-.06.03-.12-.03-.09.12.03.03.03h.03v.03h-.03v.17l.2.17-.03.23-.29.38-.17-.38-.23.29.2.2h.03l.03-.03.17.26-.09.26.09.23.35-.2-.03.03.44-.09-.14-.12v-.2l.14-.15.03-.23-.55.46-.09-.06-.03-.09.75-.84.23.06-.06-.32.09-.17.35-.09-.06-.14.09-.12.29.06-.06.23.03.06h.09l.2-.35-.17-.46.06-.09.23.14.26-.06.03-.15.09-.06v-.12l.03-.03ZM146.39,121.2l-.17-.26-.14-.03-.09.09.12.35h.14l.15-.14ZM146.01,109.31l.09.26.14.09.09-.12-.09-.15-.23-.09ZM146.41,110.55l-.14-.12-.06.06v.09l.15.09h.06v-.12ZM147.37,116.79v.06l.2.12.23-.12.15-.52-.29-.29-.03-.14.06-.06v-.06l-.09-.03-.09.06-.46-.06.03-.2-.26-.26-.41.06v-.03l-.09.09-.03.14-.09.09.03.14h.06l.17.15-.26.06.23.12.23-.06.03-.14.12-.09.23.17.14-.03.29.29-.06.26-.03.2-.06.06.03.03ZM146.44,113.95l-.03.06.09.09.12-.12-.17-.03ZM146.47,109.92l.17-.15h-.17v.15ZM146.59,114.41l-.09.12.03.12.17.03h.12l-.09-.2-.14-.06ZM146.59,108.64l.03.09.09.06.17.14.09-.29-.06-.09-.17-.03-.14.12ZM146.79,113.37l-.17.29.03.09.14.03.12-.23.23.14h.12l.26-.29.03-.23-.17.2-.17.06-.49-.29.09.23ZM146.99,112.53l-.06-.09-.12-.03-.09.06.23.2.03-.15ZM147.05,113.92h-.15l-.17.17.03.15.17-.03h.03l.09.06.09-.06v-.14l-.09-.15ZM146.99,110.96h.2l-.09-.17-.12.17ZM147.02,109.39l.03.09.09-.03.12-.09v-.03l-.09-.09-.12.06-.03.09ZM147.14,111.8l.03-.12-.09-.06h-.03l-.03.03.12.15ZM147.08,108.67l.09.12.14.03-.03-.17-.09-.09-.09.03-.03.09ZM147.75,114.93h-.03l-.12-.29h-.14l-.2.17-.03.17.12.06.41-.06v-.06ZM147.34,110.76l.26.29-.03.12.06.12h.06v-.23l-.03-.03.06-.23-.15-.17h-.12l-.06.12-.06.03ZM147.37,110.15l.03.09v.12l.15.09.06-.35-.09-.09-.09.03-.06.12ZM147.63,120.47l-.03-.12-.06-.03-.06.03.03.17h.06l.06-.06ZM147.55,112.32l.09-.09v-.12l-.06-.03-.03.03-.03.12.03.09ZM147.69,115.17v.12h.2l.17-.14-.12-.12-.26.14ZM147.84,111.97l.06.12h.12v-.06l-.17-.06ZM147.98,119.69l-.12-.12-.03.06.03.06.12.03v-.03ZM147.92,111.22l.12.09.2-.03.12-.06-.03-.09-.06-.03-.35.12ZM149.03,115.48l-.96.23v.03h.03l-.12.46.09.09h.17l.17-.41.26-.06.17.17v.14l.12.09.12-.06.06-.15h.03l.09-.14-.03-.09.17-.12.03-.29-.17-.15-.23.23ZM148.33,113.89v.23l-.09.06-.09.2.14.23.03-.32.03-.03.15.06.41.67.12-.17v-.17l-.29.06-.41-.81ZM148.42,114.96l.03-.09-.12-.12h-.17l.26.2ZM148.21,113.02h.03l.06-.03v-.06l-.03-.03h-.06l-.03.03v.06l.03.03ZM148.39,113.28l-.03-.03h-.06l-.03.03.06.12.06-.06v-.06ZM148.74,118.94l-.17-.03-.17.14.15.09.17-.06.03-.14ZM148.45,116.88l.03.03.09-.03.12-.15-.03-.2-.2.35ZM148.53,116.41l.12.03.12-.09v-.14l-.03-.09-.12-.03-.09.06-.06.15.06.12ZM148.68,117.08l.06.14.09-.12-.03-.12-.12.09ZM148.79,114.41l.06.03.06-.03.06-.15-.12-.2-.06.35ZM149.14,115.69v.03l.03.03-.12.23-.14.03.03-.23-.06-.12.26.03ZM148.91,112.96l.03.03h.03l.06-.06-.03-.06h-.03l-.06.09ZM149.14,116.96l-.06-.06h-.06l-.06.06.03.06h.03v.03h.06l.06-.09ZM149.17,116.47l.12-.03v-.14l-.06-.03-.09.15.03.06ZM149.66,117.14l-.09-.09-.32.67.03.03.38-.61Z"/>
      <path class="cls-1" d="M168.22,120.15v.46l-.12,1.57v.46l-.03,1.59v.32l-.09.15-.23.09-.41.03-1.48-.03h-1.8l-1.45-.12-.17-.06-.09-.09v-.29l-.06-.72v-.46l-.03-.44v-.44l-.09-1.57.03-.46.09-1.57.03-.46-.09-1.6v-.46l-.03-1.57v-2.49l-.03-1.6v-.46l.03-1.57v-2.5l-.06-1.59.09-.32.17-.12.29-.03h.23l.44-.03.7.03h.46l1.33-.06h1.8l.32.06.06.17.03.32.06.75.03.46v2.84l.03,1.57v.46l-.03,1.6v.46l.03,1.57v.46l-.06,1.57v2.52l.09,1.57ZM163.03,121.31l.29.09-.09-.17-.03-.29-.14-.06-.09.12v.03l-.03.03.09.26ZM163.43,123.35l-.09-.03-.09.09h.09l.09-.06ZM163.32,108.2l.32-.12-.17-.09-.15.2ZM163.32,109.04l.26.17.14-.12-.29-.09-.09-.14-.03.17ZM163.38,113.19l.17.09.14-.03-.32-.06ZM163.58,115.69l-.03-.15v-.06l-.06-.06-.06.09.03.23.12-.06ZM163.46,105.39l.06.06.06-.09-.03-.03h-.03l-.06.06ZM163.75,106.41l-.2.12-.06.14v.03l.15-.06.03-.12.26-.17v-.09l-.12-.06-.06.2ZM163.58,113.98l.12-.03.03-.09.15-.23.12-.03-.2-.09-.2.12-.06.23.06.12ZM163.99,106.75l-.03.15-.15-.03h-.12l-.14.17.06.09h.06l.12-.09.09.41.09.06.06.2.23-.03.09.06h.23l.06-.06-.03-.12-.09-.09-.09.03-.03.06-.41-.17-.06-.29.12-.15.03-.2.17-.12-.06-.09-.14-.06-.15.2.09.06ZM163.7,112.87v-.61l-.09.17.03.09-.09.17.14.17ZM165.73,111.63l-.03.35-.26-.15-.03.26.2.03.03-.03.23.06.09.15.17.06.32-.35h-.17l-.06-.12.03-.17-.09-.15-.06.38-.15.17-.09-.09.15-.84.14-.06-.17-.15v-.09l.17-.09.03-.06-.09-.06.03-.12.09-.06h.14v.14l.06.09.06-.06.03-.29-.26-.26.03-.09.2.03.17-.12v-.26h-.09l-.26.26-.52-.29-.09.23-.09.03-.12-.09h-.2l-.06-.35-.06-.06-.06.03v.09l-.03.03-.09-.06-.09.03.09.72-.12.06-.32-.7-.9.49-.09.32.03.03.03-.03v-.03l.26-.06.23.09v.09l-.06.09h-.23l-.17.14.03.61h.06v-.06l.29-.23.26.06v.03l.23-.09.23.06.15-.09.03-.14-.06-.09-.23.06-.12-.06.17-.29.32.09.26-.32.12-.12.14-.03.12-.12.17.2v.12l-.26.12v.03l-.09.09.09.09v.23h-.14l-.09-.09-.23.41-.23.09-.06.12.17-.06.2.2.12-.15-.03-.12.03-.03h.09l-.03.03.06.09.2.03.09.17ZM163.61,108.15v.17l.12-.29-.12.12ZM163.64,109.51l.03.03.06-.06v-.03h-.09l-.03.06h.03ZM163.7,122.04l.09.06.12-.12-.14-.17-.09.15.03.09ZM163.93,124.1l-.03-.03-.12.09.06.06h.06l.03-.12ZM163.87,104.96h.12l.06.29.17-.29-.23-.09-.12.09ZM163.99,113.89l-.09-.03-.03.03.03.06.12.03-.03-.09ZM164.04,110.81l.03.03v.12l-.03.03-.12-.2.03.03h.09ZM163.93,114.18l.09.09.12-.03-.06-.09-.12-.03v.03l-.03.03ZM163.96,104.64l.2.06.03-.06-.03-.03-.2.03ZM164.04,106.09l.03-.03-.03-.09-.09-.03v.12l.09.03ZM164.01,111.45l.03-.03v-.03l-.03-.09-.06.03v.06l.06.06ZM164.3,111.86l.32.06.23.23.06-.23-.12-.23h-.17l-.44-.38v.26l.09.09.03.15-.26.17v.09l-.06.06.09.06h.12l.06.09.35.03.03.06h.09v-.03l.03-.03-.03-.06-.29-.06-.12-.32ZM164.1,116.53l.09-.09v.38l.09.06.15-.09-.03-.06h-.06l.14-.43.26.06.06.2.06-.23.26-.12.03-.41.12-.06-.03-.12.12-.17-.26-.87-.17.03-.06-.17.06-.15-.09-.09.29-.17.09-.17.17.03.06.06h.09l-.03-.12-.29-.09v-.2l.17-.03.2.12.06-.12-.15-.09-.09-.2.17-.06.06-.15.2-.14-.03-.32-.17-.17-.12.12.12.14-.03.12-.03.03h-.03l-.06-.09-.29-.03-.12-.15v-.29l-.14.32.09.06-.03.17-.2.14.09.15.32-.03.14.23-.32.32-.15-.06-.32.2-.03.09.2.12-.23.23.03.17-.06.12.03.12h.12l.06-.06.09.06.03.09-.12.35.15.14v.09l-.2.03-.09.12.03.09.46.35v.29l-.09.06h-.2l-.32-.23-.23.46-.2.03.12.09ZM164.07,115.98l-.06.06.03.03h.09v-.09h-.06ZM164.25,105.62h-.12l-.03.06.03.03h.09l.03-.03v-.06ZM164.1,117.43l.12-.03-.03-.03-.03-.06.2-.2-.2.06-.06.26ZM164.25,120.94h.14l.03-.03.14.03.09-.09-.09-.09-.12.06-.32-.09.03.12.09.09ZM164.8,107.04v-.17l-.09.12-.15.12-.41-.17.09.17-.09.23.03.06h.12l.06-.2.2.12.17-.17.03.06.2.09v-.03h.03l.09-.06-.03-.12-.26-.03ZM164.39,107.97h-.03l-.03-.03-.12-.03-.06.09.06.09h.23l-.06-.12ZM164.3,110.73l.12.06-.09.06-.06.09-.09-.03v-.09l.09-.03.03-.06ZM164.39,114.21v-.06l-.09-.03-.09.06.17.03ZM164.22,115.37v.17l.09-.14v-.15l-.09.12ZM164.3,112.61l.03-.03.03-.12-.09.03-.03.12h.06ZM164.8,118.07l-.29-.41.09-.03.06-.09v-.03l-.12.03-.03.12-.14-.03-.12.12v.09l.55.23ZM164.28,106.7l.03.03.29-.09v-.06l-.06-.09h-.03l-.23.2ZM164.36,118.15v.12h.06l.06-.06-.12-.06ZM164.94,122.74l-.09-.03-.06.03-.32-.03-.09.09-.03.12.14.2h.09l.35-.32v-.06ZM164.39,105.16l.15.09.12-.03.06-.06-.03-.23.06-.06-.03-.06h-.06l-.26.35ZM164.39,106l.03.17.32-.06-.12-.09-.12.12-.12-.15ZM164.57,113.4l.03-.12.26.03v-.06l-.2-.29-.12-.03h-.15l.03.58.09.06.03-.09.06-.03-.03-.06ZM165.67,108.44l-.14.09-.03-.03v.03h-.03v.29l-.09.03-.06-.12-.12-.03-.06.09.03.12-.12.15-.2-.03-.17-.26h-.14l-.06.09.15.35v.03l.9.09.12-.09-.03-.14-.15-.09.09-.12.26.09.23-.15.03-.14.2-.03.09.06h.09l.03.06h.09l-.03-.12.03-.09.26-.17v-.41l-.12-.12-.2.03-.06.06.06.06-.03.38h-.09l-.17.17-.12-.06-.2.09-.06-.09v-.12l-.35-.03.17.09ZM164.74,107.8l-.03.12.09.09h.06l.03-.09-.06-.09.03-.14-.06-.06-.09.03.03.15ZM164.77,105.48h.12l.03-.12-.09-.06h-.03l-.03.17ZM164.77,106.38l.41-.26v-.12l-.09-.12h-.09l-.23.49ZM165.15,108.15l-.06-.09-.09-.09h-.12l-.12.14v.17l.09.06.29-.2ZM165.49,116.82l-.32.06h-.2l-.09.06.2.15.09-.17.17.09.15-.17ZM164.94,113.89l-.03-.2.06.12v.09h-.03ZM165.12,106.78l-.06-.06-.09.03v.12l.12-.03.03-.06ZM165.03,115.08l-.03-.09.06-.06.03.03h.06l-.03.12h-.09ZM165.26,116.47l-.09-.03-.06.03-.09.06.06.06.17.03.06-.06-.06-.09ZM165.2,117.69l-.12-.2h-.06l.03.41.15-.2ZM165.06,105.48l.03.12.06-.03h.03v-.12l-.06-.09-.06.12ZM165.12,115.28l.06-.06.03.14h.03l-.09.12-.06-.06v-.06l.03-.03v-.06ZM165.23,117.17l-.09.06-.03.09.03.03h.03l.06-.09v-.09ZM165.41,108.26l-.09-.06-.17.14.03.09.15-.03.09-.14ZM165.23,114.32h-.06v.06l.15.12.06-.06v-.41l-.14.29ZM165.32,108.87l.12.17v.06l-.2.06.03-.12-.06-.15.12-.03ZM165.23,106.26l.03.03.03-.03v-.09l-.06.06v.03ZM165.32,112.26l-.06.06.06.06.06-.06v-.03l-.06-.03ZM165.29,105.88l.06.06.06-.09-.03-.03-.09.03v.03ZM165.44,107.97l.23.12v-.06l-.09-.06h-.14ZM165.46,107.36l.09.2.2.03.12-.06.03.12.09-.03v-.12l-.12-.12-.03.12-.03-.09-.26-.15-.09.09ZM165.49,114.53l.38.03.09-.2-.12-.17-.09.03-.26.26v.06ZM165.55,106.64l.2-.09v-.23l-.2.32ZM165.55,115.14h.17v-.09l-.12-.03-.06.06v.06ZM165.61,105.83l.09.14.12.03.06-.03v-.03l-.26-.12ZM166.31,122.82l-.03-.09-.06-.03-.09-.03-.49.52.06.06.2-.09.14-.26.2-.03.06-.06ZM165.81,115.86l.06-.06-.03-.15-.06-.03-.06.03-.03.06.06.12.06.03ZM165.73,113.31l.12.06.23-.09.03-.23-.09-.12-.29.38ZM165.78,121.34l.03.06.06.03.09-.03-.03-.14-.03-.03-.12.12ZM165.87,104.87l.06-.09-.03-.06-.03.15ZM165.87,105.33l.17.03.17-.03.09.06.14-.03-.17-.12-.03.03-.2-.09-.17.15ZM165.96,109.22l.12.03.09-.12v-.14l-.2.23ZM166.1,105.91v-.03l-.09.06.03.03v.03l.09-.06-.03-.03ZM166.02,119.6l.26.14v-.09l-.12-.09-.14.03ZM166.16,112.61l-.12.06.03.09.26.12.06-.09v-.15l-.23-.03ZM166.16,114.56l.06-.06-.12-.12-.06.09.03.06.09.03ZM166.62,107.22l-.41-.58-.09.41.12.15v-.23l.03-.03.12.03.38.46.06-.29-.2.09ZM166.33,114.15h.12l.12-.12-.12-.06-.09.09-.17-.03-.06.06.06.09.14-.03ZM166.33,116.04l-.09-.17v.12l-.09.09.03.09h.09l.06-.12ZM166.19,115.69l.06.06.06-.09-.06-.06-.06.03v.06ZM166.45,115.4l-.14.14.2-.03-.09-.32-.09.12.12.09ZM166.57,114.76l.06-.26-.09-.09-.12.03-.09.38.23-.06ZM166.42,116.18h.09l.09-.06h-.09l-.09.06ZM166.57,108.96l-.09.06-.03.09.09.15.12-.06v-.2l-.09-.03ZM166.48,111.19v.06l.12.03v-.03l.03-.03-.14-.03ZM166.62,123.29l-.03-.06-.06-.03-.06.03v.03l.06.06h.06l.03-.03ZM166.62,111.92l.06.03.03-.03v-.09l-.06-.03-.06.03.03.09ZM166.74,110.84l.12-.06v-.03l-.03-.03h-.12l-.09.09.12.03ZM167.09,122.13l-.09-.12-.15.03-.06.12-.17.09.15.09.14-.06.12.06.06-.06v-.15ZM166.68,106l.03.09.06.03.12-.06-.03-.09-.09-.03-.09.06ZM166.86,109.71l.09-.09.03-.2-.09-.03-.09.23v.09h.06ZM167.29,111.1l-.2-.17-.03.26-.26.23v.06l.03.03.09-.03.38-.38ZM166.94,115.89l.06-.09-.06-.06-.06.03v.06l.06.06ZM166.91,109.04l.09.06v-.12l-.09-.06v.12ZM167.2,116.99l-.03-.03-.06.03-.03.12.06.03.06-.03v-.12ZM167.12,107.91l.06.06.06-.03v-.09l-.03-.03-.06.03-.03.06ZM167.12,108.32l.06.03.06-.03v-.06l-.06-.06-.06.03v.09Z"/>
      <path class="cls-1" d="M192.7,103.39l.7.03.49.06.49.09.49.12.49.09.46.12.43.12.44.14.61.23.41.17.96.55.38.26.38.29.49.46.32.29.32.32.26.35.41.55.23.38.2.38.23.38.32.58.23.38.2.44.15.41.14.67.17.87.06.49.09.49.06.99-.03.46-.06.67-.06.44-.17.87-.06.67-.06.43-.09.46-.12.43-.29.61-.2.41-.78,1.3-.26.38-.29.38-.29.32-.46.49-.32.29-.38.29-.35.26-.52.35-.38.23-.43.23-.41.17-.58.23-.44.12-.93.29-.49.15-.46.12-.49.12-.49.09-.49.03h-1.57l-.99-.06-.96-.12-.41-.09-.44-.12-1.57-.52-.46-.14-.49-.2-.93-.41-.43-.23-.44-.26-.38-.29-.38-.32-.35-.38-.32-.38-.78-.78-.29-.35-.29-.38-.23-.38-.23-.58-.44-1.3-.17-.61-.09-.44-.09-.46-.09-.44-.09-.64-.03-.44-.03-.49v-.49l.03-.49.03-.52.06-.49.09-.49.12-.49.14-.49.15-.43.17-.46.2-.67.2-.46.12-.26.23-.44.41-.64.29-.41.15-.23.35-.35.49-.41.38-.29.38-.26.87-.58.38-.23.41-.23.41-.2.61-.26.41-.15.43-.14.44-.12,1.1-.2.43-.09,1.45-.17.93-.06.87.06ZM181.79,119.05l.03.06h.09l.03-.03v-.03l-.12-.09-.03.09ZM182.31,118.15l-.06-.17-.09-.03-.06-.06.2.26ZM183.27,118.82l-.09.23.06.09.49.12.06-.03-.03-.09-.09-.06-.12-.29-.15-.03-.15.06ZM183.56,114.99l.03.29.17-.14.03-.15-.12-.06-.12.06ZM183.76,117.6l-.06.09v.12l.17.03.09-.12v-.12l-.12-.03-.09.03ZM184.58,116.91l-.35.09-.06.12.52-.2h-.12ZM184.4,108.49v.06l.03.03h.03l.06-.09-.03-.06-.09.06ZM184.58,115.48l-.03.29.15.09-.09-.2.09-.12-.03-.09-.09.03ZM184.75,121.31v.06l.03.03.23.06.41-.15.06.09.12-.03.03-.09-.12-.15-.75.17ZM186.14,106.58l-.49.49h-.03v.03h-.03l-.03.03-.23-.12.09-.12-.09-.12-.09-.03-.41.32.12.17h.12l.15.2.41-.32h.06l.7-.52.12-.12-.35.09ZM185.04,107.97l.06.12h.03l.03-.03-.03-.12-.09.03ZM185.07,117.4l-.03.15.09.14.06.06.03.12h.12l.03-.12-.14-.17.03-.12-.09-.12-.09.06ZM185.19,108.38v.06l.12.03.03-.06-.03-.06h-.03l-.03-.03-.06.06ZM185.48,121.87l.03.12.06.03.06-.03v-.06l-.09-.09-.06.03ZM185.5,119.31l.09.06.09-.03.06-.12-.2-.03-.03.12ZM185.65,107.45l-.03.12.17.17.09-.14-.17-.15h-.06ZM191.42,108.38l-.64.03-.44.09-.75.2-.46.17-.67.35-.41.26-.46.41-.32.35-.32.43-.23.38-.09.17-.26.61-.15.44-.09.2-.09.41-.06.41-.03.41-.03.44v.43l.03.46.09.46.03.26.12.44.06.2.14.41.12.23.23.41.14.23.32.41.17.2.35.35.58.49.41.26.46.23.43.17.61.2.44.09.72.09.49.03.73-.06.46-.06.64-.14.41-.17.64-.41.35-.26.46-.46.29-.32.38-.46.26-.41.29-.64.17-.44.15-.67.06-.44.06-.7v-.49l-.03-.49-.03-.46-.17-.87-.12-.41-.32-.64-.23-.38-.41-.52-.29-.32-.44-.46-.32-.26-.75-.44-.41-.17-.46-.14-.46-.09-.93-.06-.44.03ZM186.32,121.05l-.09-.03.06.17.17.06v.03l.09.06h.06l.09-.14v-.17l-.14-.03-.23.06ZM187.01,107.39l-.12-.06-.06.03.03.09h.23l.09-.14-.17.09ZM187.65,106.9l-.09.06.06.09.23-.03.12.09-.03-.2h-.29ZM187.65,106l.14.15-.03-.12-.06-.06-.06.03ZM187.74,107.3l.03.09.09.03.03-.03v-.03l-.06-.06h-.09ZM188.2,121.92l.09-.09-.06-.12-.15-.09.12.29ZM188.7,105.25l.06.14.09.03.09-.03.03-.14-.23-.15-.03.15ZM189.54,106.78l.03.2h.06l.12-.2-.14-.2-.06.2ZM189.68,105.39l.09.09.09-.12-.09-.03-.09.06ZM190.7,105.94l.09.12-.06.06-.17.03-.15-.15-.09.03-.06.29h.12l.09-.09.7.43.09.03.06-.06-.38-.58.03-.06-.03-.06-.14-.09-.09.09ZM191.1,107.51l.09.29.12.06-.06-.14-.06-.09h-.03l.03-.03v-.03l.03-.03h-.03v-.03h-.09ZM193.13,107.04l-.52-.26-.09-.2-.12.03-.12.17.2.2.12-.09.12.06-.06.26.17.2.12-.03.03-.09-.09-.06v-.09l.49-.03.06-.09.26-.03-.06-.44-.03-.06-.49.52ZM192.55,105.74l-.14.23.03.06.06.03h.03l.12-.2.2.14h.06l.23-.2.06-.2-.32.2-.41-.26.09.2ZM194,123.03l.35.2-.09.52.17-.17.29.03.06-.03v-.09l-.03-.03-.23-.06.06-.23-.35-.2-.23.06ZM194.73,121.31l.15.2-.38.38-.17.26.2-.09.09.06h.2l.15-.2-.32.09-.03-.03v-.12l.44-.49-.03-.09-.14-.03-.15.06ZM194.44,121.49l-.12.17h.15l.14-.09v-.06l-.03-.03h-.15ZM194.76,106.87l.03.12h.12l.17.09.14-.09v-.06l-.09-.03-.12.03-.17-.09-.09.03ZM194.87,123.06l-.09.12.06.12.2.09.09-.06-.06-.26-.06-.03-.14.03ZM195.28,120.76l-.03-.03-.15.06v.06l-.12-.09v.03l-.03.03.23.35h.03l.38.43h.17v-.03l.35-.23v-.12l-.12-.09-.38.15-.2-.12v-.23l.09-.09v-.12l-.12-.03-.12.06ZM194.99,123.61l.03.06h.06l.06-.09-.14-.06v.09ZM195.02,107.3l.03.09.09.06h.09l.03-.17-.15-.03-.09.06ZM195.11,121.72l-.06.12.06.14.06-.12h.03l-.03-.15h-.06ZM195.4,120.91l-.14.15v.09l-.15-.2v-.03h.06v-.03l.12-.03.12.06ZM195.22,122.47l.03.15.12.03.06.06.29-.06.03-.12-.29-.29-.23.23ZM195.28,108.38l-.03.03v.09l.09-.12-.06-.03v.03ZM195.4,120.42l-.06.09v.06h.09l.06-.06-.03-.09h-.06ZM195.4,123.17v.06l-.03.03v.15l.12.03.09-.09-.03-.12v-.03l-.06-.09-.09.06ZM195.4,122.1l.26.12.06-.09-.12-.12h-.09l-.09-.06-.03.14ZM195.71,120.79l-.12.09-.03.09.06.09h.12l.14-.17-.06-.09h-.12ZM195.63,108.23l-.03.03v.12h.06l.06-.12-.03-.03h-.06ZM195.6,119.75v.09l.32-.09-.12-.09-.2.09ZM195.83,120.15v.09l.03.03h.06l.03-.12-.06-.03-.06.03ZM195.98,120.59l-.09.17.17-.03.17-.09-.03-.06-.06-.03-.17.03ZM198.06,118.44l-.09.09-.32-.03.15.12-.17.49.32-.32.12-.03.15.09v.06l-.46.49-.35-.03.03.23-.06.12-.2-.09-.12.03.03.12-.09.06-.26-.14.17-.23h-.12l-.26.2.03.2-.06.12.03.12-.09.06-.15-.2-.17-.03v-.03l-.03-.03v.06h-.03l-.03-.03v.03l.06.09h.03l.03.03.09-.03.35.72.15.03.03-.03h.06l.23-.52.29.17.06-.06h.14l-.03-.12.2-.2.14.12v.14l.52-.14.26.12.17-.12-.06.03-.15-.09-.03-.32-.03-.03-.2.06v.09l-.06.06-.06-.03-.03-.06.06-.09-.2-.2.03-.2.26-.32.15.32h.03l.17-.23-.17-.15h-.06l-.17-.2v-.2l-.09-.15-.15.03ZM196.21,121.29v.38l-.09.09h-.06l-.03.06.03.06.09.03.06.09.09.03.12.2-.12.12v.35h.03l.26.17v.03l.32-.09.06-.09-.06-.26.2.14-.09-.23-.17-.09-.23.06-.06-.26-.12-.09.06-.26-.06-.09.35-.26h.06l.03-.06-.06-.2-.23-.06-.38.23ZM196.06,120.3v.06h.06l.03.03.03-.09h-.12ZM196.53,119.11v.06l.09.06h.17l-.12-.12-.12-.03-.03.03ZM196.79,108.29l.2.03.06-.17-.43-.09.17.23ZM199.49,119.17v.06l.23.23v.2l-.12.17-.26-.26-.06-.35-.23.17.26,1.1-.17.12-.17-.06-.09-.12v-.06l-.2.03-.03-.03h-.06l-.2-.17h-.2l-.12.14v.12h.15l.2.17-.06.12h-.14l-.12.09-.29-.26-.44.17h.06l-.52.06-.06.12.2.32h.03l-.23.38.03.09h.06l.03-.06h.03l.03-.03.03.03h.03l.03.09.09.06.41-.49.06-.35.15.03.03.03-.14.84-.06.06h.26l.2-.14.84.06.2-.15.06-.14-.03-.03-.03.03v.03l-.29-.09-.2-.23.15-.15.12.12.38-.03.2-.44h.03l.12-.26.06-.03.03-.15-.06-.03-.26.14.15-.52h.38l.06-.09.12-.03-.06-.12-.12-.06v-.12l-.29-.23v-.09l-.06-.09-.09.06ZM196.87,107.1l.06.09h.14l.23.09-.03-.35-.12-.06-.29.23ZM197.19,119.05l.06-.06h-.03v-.03h-.03l-.06-.03.06.12ZM197.28,108.35l.06.15.12-.23-.17.09ZM197.34,109.13l-.03.15.2.09.06-.03-.03-.12-.12-.09h-.09ZM197.37,118.41l-.06.03.03.12.12-.03v-.06l-.06-.06h-.03ZM197.4,106.84v.09l.14.06.17-.03-.09-.14-.17-.06-.06.09ZM197.69,107.57v.15l.06.06.09-.06v-.06l.09-.09-.03-.06-.12-.03-.09.09ZM197.98,115.66h.06l.03-.03h.03v-.06l-.09-.03-.03.12ZM198.21,117.86l-.03.03v.03l-.03.03.2.17.15.03v-.06l.03-.03-.23-.2h-.09ZM198.3,109.42l.23-.09-.17-.12-.06.2ZM198.44,108.32l-.03.12.09.17.2.06-.06-.38-.12-.03-.09.06ZM198.5,116.33l-.03.12.03.12h.17l.09-.32-.26.09ZM198.47,116.7l.06.03.41.09v-.03l-.09-.06h-.09l-.03-.03-.23-.03-.03.03ZM198.56,111.05l-.06.06.12.12.17.03v-.12l-.09-.09h-.15ZM198.82,120.79l-.06.12v-.03l-.17.03-.09-.14.26-.06.06.09ZM198.59,114.38l-.06.06.03.12.06.03.06-.06-.03-.15h-.06ZM198.56,115.6l.09.23.12-.14-.15-.06h.06l.03-.03.09-.06-.23.06ZM198.7,117.66l-.12.23.03.03v.06l.17.03.06-.06.12-.03.09-.14-.09-.12h-.26ZM198.59,119.43l.2.26v.2l.14-.12-.14-.35h-.2ZM198.67,108.9l-.03.15-.03.03.35.2.03.14.12.12h.03l.03-.03v-.14l-.12-.09v-.03l-.03-.03-.03-.23-.2-.15-.12.06ZM198.61,110.12v.03l.06.09.12.03-.03-.06-.06-.09h-.03l-.03-.03-.03.03ZM198.64,114.99l-.03.17.17.15-.03-.15.03-.12-.03-.09-.12.03ZM200.5,113.48v.06l-.03.06.06.12.09-.03.06.15-.09.12v.26l-.03.03h-.26l-.14-.2.03.26-.26.23.12.46-.09.12.06.14-.12.44.35.81.14-.03.12.26-.09.23.03.14-.09.2-.12-.14-.38.23-.15-.09-.03-.09-.12-.06-.03.03.09.23.17.09-.06.23-.2-.03-.17-.2-.12.09.12.15.03.23-.03.03h-.2l-.12.12h-.26l-.15.29.06.06-.03.09.03.12.09.03.09-.03.03-.29.12-.03v.09l.03.03v.03l.26.2v.23l-.2.29.35-.23-.03-.12.46-.23.03-.15-.06-.09-.32-.12v-.17l-.09-.15.49-.23.14.14.44-.09.06-.09-.17-.2.41-.29.06-.7-.12.03-.09.09-.12-.26h-.03l.14-.23v-.17l-.14-.17v-.09l.26-.12v-.03l.06-.06-.06-.17-.58-.41h-.06l-.12-.32.09-.12.64.06.06-.43.26-.26-.14-.03-.09.12-.15-.46-.12-.06-.09.06ZM199.11,116.99l-.32.23-.12-.03.38.26.23-.38-.03-.12-.15-.03v.06ZM198.82,115.43l-.03.03v.03h.03l.09-.03v-.03h-.06l-.03-.03v.03ZM198.91,118.91l-.03.06.03.06h.06l.03-.03v-.09h-.09ZM198.93,116.53l-.03.03.03.03h.03l.06.06.06-.06v-.06h-.15ZM199.02,121.05l-.06-.09h-.03v-.12l.03-.03v-.06h.06v.29ZM199.2,112.93l.23.15.03-.03-.2-.41-.06.29ZM199.25,115.17l-.03.09v.06l.06.06h.09l.09-.12-.09-.06v-.03h-.12ZM199.31,116.53l-.09.06v.12l.09.12.09.03.2-.06v-.03l.15-.15v-.06h-.03l-.03-.03h-.38ZM199.28,110.52v.12l.09.09.06-.12-.06-.12-.09.03ZM199.6,113.63l-.03.03.03.03v.06h-.23l-.03.17-.06.06.09-.06.43-.17.09-.15-.03-.06-.26-.03v.12ZM199.28,114.64l.06.14.12.12.06-.12-.14-.26-.09.12ZM199.37,113.28l-.03.12.06.09.06-.12v-.09h-.09ZM199.37,109.36l.23.12.26-.06.09-.09-.12-.17-.12-.03-.35.23ZM199.43,112.32l.52.29.17-.03.06-.17-.06-.12-.7.03ZM199.46,115.86v.12l.14.03.09-.09-.03-.06h-.2ZM199.57,110.29l.09.09h.09l.03-.03v-.03l-.09-.06-.12.03ZM199.69,114.09l-.09.15.06.06h.12l.14-.14-.12-.06h-.12ZM199.69,111.97v.03l.15.03v-.09l-.06-.03-.09.06ZM199.89,116.67l-.12.46.32-.29h.03v-.09l-.17-.15-.06.06ZM199.86,119.05h-.03l-.06.12.06.03.06-.06v-.12l-.03.03ZM199.83,112.7l.03.14.09-.12-.03-.09-.09.06ZM200.07,119.37l-.09.03-.03.06.03.06.17-.06v-.06l-.03-.03h-.06ZM200.21,115.54l-.03.03v.12l-.09.06v-.09l-.06-.09.06-.09.03-.06.09.12ZM200.38,118.09v.09l-.09.09-.26-.12.09.61.17.12h.03l.23-.52.03-.26-.06-.09-.15.09ZM200.27,115.95h.06v.03l.03.03h-.03l-.06.06-.06-.03-.09.03.06-.09v-.06l.09.03ZM200.18,117.49l-.03.09-.03.12.03-.23.03.03ZM200.24,111.19l-.03.09.06.03h.03l.03-.03v-.06l-.03-.03h-.06ZM200.36,112.76h.06l.06.06-.14.32.2-.14-.06-.32-.12.09ZM200.41,111.54l.03.15h.06l.03-.06-.06-.09h-.06ZM200.41,119.49l.09-.03v-.03l.49-.64-.06-.29-.52.99ZM200.94,117.25l-.03.12.09.06.15-.09-.06-.03-.03-.06h-.12ZM200.94,116.09l.23.2v-.32l.32-.26v-.09l-.06-.03-.49.49ZM201.02,110.96v.06l-.03.03.03.06.06-.03.03-.03v-.06l-.03-.03h-.06ZM201.08,114.35v.06l.03.03h.06l.03-.09-.03-.06-.09.06ZM201.23,117.78l-.03.03v.09l.06.06h.06l.03-.03-.06-.14h-.06ZM201.34,117.57l.06-.03.03-.26-.17-.03.09.32Z"/>
      <path class="cls-1" d="M231.85,118.27l-.03.49-.06.49-.09.46-.14.64-.15.41-.26.58-.2.38-.35.52-.29.35-.35.35-.35.32-.58.38-.38.26-.44.23-.41.2-.67.23-.87.29-.46.09-.73.12-.44.06-.64.06-.41.03-.67.03-1.39.09h-.64l-.41-.03-.67-.06-.44-.06-.49-.09-.43-.15-.64-.2-.41-.2-.43-.2-.41-.2-.38-.23-.93-.64-.35-.29-.52-.41-.35-.29-.32-.32-.23-.26-.03-.2.14-.26.12-.14.29-.32.81-.75.26-.32.49-.75.26-.32.29-.32.32-.17.32.06.32.23.93.64.44.23.41.2.67.32.43.14.46.15.46.09.67.03.46.03,1.83-.12.46-.06.23-.06.44-.17.38-.23.29-.29.15-.2.17-.44-.03-.49-.06-.23-.23-.41-.14-.17-.38-.29-.23-.09-.44-.17-.49-.12-.49-.09-2.75-.26-.87-.17-.46-.12-.64-.23-.44-.14-.43-.2-.99-.49-.38-.26-.44-.26-.38-.26-.49-.41-.26-.38-.26-.43-.17-.44-.2-.61-.09-.43-.09-.64-.06-.93.03-.46.06-.7.09-.44.12-.38.14-.44.29-.64.2-.41.23-.35.29-.32.46-.44.38-.29.38-.26.41-.2.55-.32.87-.35.43-.15.67-.12.46-.09.87-.12.64-.12.46-.06.44-.03h.46l.87.09.44.06.2.06.46.06.99.17.49.12.46.15.49.14.46.17.44.2.43.17.55.32.41.2.38.26.26.26v.29l-.17.32-.32.58-.23.35-1.1,1.45-.32.41-.35.29-.23.09-.2-.03-.29-.14-.44-.26-.43-.17-.2-.09-.44-.14-.23-.06-.49-.12-.67-.15-.46-.03-.75-.06h-.75l-.49.03-.49.09-.46.14-.17.09-.35.26-.15.17-.2.41-.06.46.09.38.23.38.32.29.35.17.2.09.44.09.72.09.99.06.49.09.99.23.93.29.67.15.43.12.81.29.58.26.41.2.41.23.38.23.84.7.32.35.29.35.35.52.23.38.2.44.12.44.12.64.06.44.03.49ZM216.04,119.92l-.03.03h-.03l-.03.12.09.12v-.26ZM216.36,111.31l-.09.03-.06.23.12.06-.03-.17.06-.09v-.06ZM216.36,109.6h.09l.03-.03v-.06l-.03-.03h-.06l-.03.12ZM216.39,107.39l.03.06h.09l-.06-.12h-.06v.06ZM216.53,112.15l-.06-.06-.06.06.03.09h.06l.03-.09ZM216.59,106.99l.26.58.06-.55-.09-.12-.17-.03-.06.12ZM216.59,110.41l.09.09.2-.03.03-.06-.09-.09-.23.03v.06ZM216.97,112.03l-.15-.17-.09-.03-.06.06.12.17v.12l.17-.15ZM216.77,109.6l-.03.03v.06l.06.03h.06l.03-.03-.03-.06-.09-.03ZM216.77,106.55l.12.06v-.03l.03-.06.32-.03-.2-.12-.26.17ZM216.79,108.9l.06.03v-.09l-.09-.06v.09l.03.03ZM217.2,121.14l-.12-.09v-.12l-.06-.03-.17.2.35.17v-.15ZM217.03,107.07l.09-.06v-.03l-.12-.03-.03.09.06.03ZM217.69,110l-.12.03-.09-.03-.09.09h-.23l-.06.96.15.06-.06-.55.09-.09.12-.03.06.12.2-.03.03-.52ZM217.2,107.59l.26-.06.03-.23-.06-.03-.12.15-.12.17ZM220.33,105.59l-.06-.17.17-.09h.17l.06-.06.12-.03v.17l.32.2.03.09-.06.15v.09h.03l.03.03.12-.41.23-.03v.35l-.03.03v.06l.09.06.09-.2.15-.09.03.03h.03l.06.17.32.29.32-.03.17-.2-.09-.14-.17.14-.15-.03v-.06l.12-.09.03-.29.46-.15-.35-.14-.06.12-.2-.06-.12-.12h-.14v.32l-.26.2v-.03l-.41-.32.09-.17-.15-.17-.09-.03v-.03l-.17-.09-.12.23-.29-.2-.17.09-.12-.06-.14.06.03.12.09.06-.03.12h-.61v.06l-.09.14-.2.09-.26-.17-.09.06-.09.61-.29.15-.09-.06-.09-.17.03-.41-.41.03-.03.03-.2-.03-.17-.12-.09.15.2.06-.52.44v.12l.06.06h.06l.15-.12-.03-.09.14-.2.52-.09.06.06-.03.09.06.09-.26.23.32-.12.29.2.41-.17.09.06.12-.09.09.06.29-.09.12-.2.58-.32ZM217.64,111.39h-.03l-.06.06v.06l.06-.06v-.03l.03-.03ZM217.87,107.16l-.2.03v.03l.03.03h.09l.09-.09ZM218.33,121.43l-.12-.06-.26.06-.09-.14-.09-.03-.06.06.03.15.55.03v-.03l.03-.03ZM218.3,107.07l-.29-.2-.14-.12-.12-.03.06.26.17-.09.09.2.23-.03ZM218.19,112.93l-.29.29.12.03.17-.09v-.23ZM217.95,120.91l.03.03h.06l-.03-.14-.06.06v.06ZM218.27,123.26l-.09-.03h-.12l-.06.06.06.12.2-.09v-.06ZM218.39,106.7l.09-.06-.06-.09-.17-.09-.06.12.06.12h.14ZM218.22,105.22l.09.09h.06v-.09h-.06l-.03-.03-.06.03ZM218.56,111.42l-.12.09-.06.14.03.03h.06l.09-.09v-.17ZM219.06,106.7l-.09-.03-.23.15.09.12.23-.23ZM219.41,113.69l-.09-.55-.03-.03.03-.2-.03-.03-.03.12-.17.09-.03-.03v-.09l.03-.03-.03-.03h-.03l-.2.23.12.03.03-.03.12.23h.06l.14.32.06.03.06-.03ZM218.91,107.51v.03h.03l.03.03.03-.06v-.09h-.09l-.03.06.03.03ZM218.94,104.84l.09.09.78.12.2-.26-.96-.03-.12.06v.03ZM218.97,112.18l.15-.03-.06-.06-.06-.03-.03.03v.09ZM219.29,114.85l-.17-.26.09-.09h-.06l-.03-.03h-.06l.03.29.2.09ZM219.52,107.25l-.09.06-.12-.03-.09.06.03.12.15-.03.09-.09.03-.09ZM219.52,106.7l-.12-.06-.09.09v.12h.14l.06-.06v-.09ZM219.84,122.1l-.09-.09v-.09l-.43.23v.06l.38.09.12-.09.03-.12ZM219.52,105.91h.12l-.09.06-.12.06-.09-.03.03-.03v-.03l.12-.03.03-.03v.03ZM219.81,123.95l-.09-.09-.15-.03-.03.03-.12-.03-.06.06.06.09.14-.03.12.09h.09l.03-.03v-.06ZM219.78,107.16l-.06-.09-.06.03-.03.09h.12l.03-.03ZM219.87,105.62l.03.03v.06l-.15.06v-.09l.12-.06ZM219.84,107.88l.03.03.12.03-.06-.12-.09.06ZM220.25,107.1l-.12-.06-.17.12h-.09l.15.15.23-.2ZM219.96,106.41l.06-.06v-.12l-.12-.03v.12l.06.09ZM220.33,122.94l-.09-.03-.06.03-.03.06.03.12.06.06.09-.12v-.12ZM221.7,113.92l-.06-.23-.14.26-.38.2-.46-.26-.09-.23-.23.2.2.2.09-.06.12.06-.06.26.14.2.12-.03.03-.09-.06-.06v-.09h.46l.06-.09h.23l.03-.26ZM220.8,107.1l-.06-.12-.32.03-.06-.06.03.12.17.15h.15l-.03-.03.12-.09ZM220.51,121.08l-.06-.06h-.06l-.03.09.03.03h.06l.06-.06ZM220.88,106.35l-.35-.32h-.06l-.03.06.06.09v.26l.23.06.06-.12.09-.03ZM220.48,104.4l.03.12.09-.09.03-.12-.03-.03h-.03l-.09.12ZM220.94,105.8l-.29-.12-.03-.06-.14.23.12.03.35-.09ZM220.48,113.13l.12.03.12-.17.17.14h.09l.26-.38-.14.14-.15.03-.38-.26.06.17-.14.23v.06ZM220.59,106.78l.06-.03.09-.12-.03-.03-.15.06.03.12ZM220.62,104.61l-.03.09v.09l.06.03.03-.03v-.12l-.06-.06ZM220.88,123.93l-.06-.26-.23-.09.03.41.12.06.12-.09v-.03h.03ZM220.88,121.84l-.09-.03-.09.03.09.03.09-.03ZM220.77,104.32l.06.06.09-.15-.03-.03-.09.06-.03.06ZM221.23,106.96l-.09-.09-.03-.06-.03-.03.06-.12-.09-.06-.09.09.06.26.15.12.06-.12ZM221.58,106.55l-.03-.32-.49.06.03.12.41.14.03.09.06-.09ZM221.32,104.78l.17.06h.06l.26.03v.14l-.06.06v.06l.06.03.06-.09h.06l.26-.23-.03-.15h-.75l-.03.06-.06.03ZM222.02,124.3l-.09-.06-.14-.03-.12.09h.2l.12.09.03-.09ZM222.13,106.41l-.38-.32-.06.12.06.23.26.06.12-.09ZM221.78,104.26l.41-.03.12.09.15-.03-.46-.17-.2.15ZM222.48,106.55l-.06-.12-.09.03-.12.15-.03.12.09.12.17-.03.03-.26ZM222.45,104.87l-.06.06.03.03.12-.03v-.09l-.09.03ZM222.65,123.72l-.03-.12-.15-.03h-.09l.03.12.03.03v.03l.12.06.09-.09ZM222.51,104.58l.03.03.06.03h.06l.03-.06-.03-.06-.12-.03-.03.09ZM222.71,104.87l-.12.23.09.06.06-.03.09-.29.12-.12h.2l-.06.35-.26.23.26.06.26-.23v-.09l.52-.41.12.09.03.15-.09.17.2.61-.15-.12-.06-.26-.12-.06.06.2-.26.15.14.17.12-.06.03.15-.15.03-.06.17-.2.12-.35-.06.2-.29-.29-.03-.06.23h.03l.03.03-.29.49.38.38v-.17l.35-.12-.38-.15v-.17l.03-.03h.03l.06.06.06-.03v.03l.49.09.12.12.03.14.2-.14.12.03.12.23.06-.09.14.09-.03.2-.03.03v-.03h-.23l.09.09.15.03.03.03v.03l.09-.12.03-.03.03-.06.06.12-.09.2.06.12.26-.03-.12-.09v-.23l.35-.14.14-.23-.06-.06v-.03l-.32-.17-.03.03-.12.06-.09-.03v-.26l-.12-.15v-.03l-.12.12-.23-.06v-.17l.12-.06-.26-.2h.17l.12-.09-.09-.12.03-.23h.12l.06.09.15.06.03.12-.06.23h.03l.32.26-.03-.03v-.03l.26.46.15-.03.14-.29v-.03l.52-.03-.03-.09h-.09l-.03-.03-.03.03-.03-.03v-.03l.09-.09v-.12h-.9l-.03-.15.81-.2-1.1-1.19-.12.03v.03l.03.03h.03l.09.26-.06.26h-.09l-.12-.03.03-.14-.23-.26h-.2l-.12.09-.17.03-.09-.06-.15.03.06.09h.09l.12.17-.06-.06-.14.03-.03-.03-.35.12-.2-.26-.17-.09-.03.12v.12l-.12.06v.23ZM222.8,114l.15.03.12-.06.03-.09h-.26l-.03.03-.09-.06-.09.03.06.09h.09l.03.03ZM222.8,105.74h.03l.03-.09-.06-.03-.06.06.06.06ZM223.18,114.21l-.09-.03-.14.09.03.09.17.03.03-.17ZM223.32,107.16l-.03-.12h-.03l-.06.03v.12l.12-.03ZM223.35,105.71l.12-.29.2-.09h-.03l-.2-.06-.17.26.09.17ZM223.41,115.25l-.06-.03-.06.06.03.09.09-.12ZM223.78,115.08l-.06-.03h-.06l-.03.06.06.09.06-.03.03-.09ZM223.81,107.01h-.06l-.03.03.03.09h.03v-.03l.03-.09ZM224.31,104.67l-.12.09v-.15l.12-.06v.06l-.03.03v.03h.03ZM224.39,105.07l-.2-.15.06-.09h.09v.03l.03.06.06.03-.03.12ZM224.31,107.48l-.03-.12-.09-.14.03.26h.09ZM224.45,113.6l.09.06.23-.06.12.03-.15-.32-.12-.03-.14.14-.03.17ZM224.97,114.5l-.2-.06-.23.12.23.15.2-.03v-.17ZM224.92,122.68h-.23l-.03.03v.06h.12l.15-.09ZM225.24,113.16l-.2-.09h-.2l-.03.09.06.09.38-.09ZM225.41,122.36l-.03-.17h-.06l-.06.06.09.12h.06ZM225.44,107.01l-.09-.09-.03.09.03.09.09.03v-.12ZM225.5,114.56l-.17.09.09.12v.03l.09-.23ZM226.13,107.13l-.23-.35h-.09l-.09.12.12.29-.09.17-.41.03.03.29-.03.03.03.03v.03l.75-.64ZM225.44,107.19l.03.09h.06l.12-.12-.06-.09h-.03l-.12.12ZM225.82,115.51l-.09-.12h-.2l-.03.06.06.09.26-.03ZM226.11,106.41l-.06-.09-.03-.03-.29-.12v-.03h-.09l-.12.17.03.2.32.17.29-.06.09.09v.06h.06l.15-.2v-.06l.2-.12v.03h.03l.09.12.17-.09v.03l.14.06.17-.41-.29-.38v.03l-.2.03.03-.29-.14.12-.06.23.12.15v.14l-.23.06-.03.14-.26-.03-.09.06ZM225.87,113.83l-.03-.06-.2-.03-.09.09.03.06.03.09.15.06.06-.06v-.09l.06-.06ZM226.16,122.36l-.2-.17-.03-.03v-.03l-.17.09-.03.12.03.03h.09l.09-.06.23.06ZM226.54,107.91l-.15-.17.03.32h-.12l-.17-.2v-.06l-.29-.12-.03.23.2-.14.52.58v-.44ZM226.11,123.81l-.06-.09h-.17l-.03.06.03.09h.06v.03l.15-.03.03-.06ZM229.64,121.11l-.17-.03-.32.12-.32-.41-.09.23.15.38-.12.2-.23-1.1-.17-.03-.03-.03h-.03l-.26-.17-.43.23.12.26-.06.26-.23-.29v-.03l-.06-.09-.64-.26-.2-.32.14-.23.15-.03.06.15.12.06.12-.06-.17-.26v-.06l.29-.12-.26-.2-.23.06-.26.26-.06.38-.32.35-.2.06.12.17.35-.14.14.06.2-.06.41.29v.2l.2.12-.06.06.49.29.15-.06.06-.12-.03-.06.41.06.2.26-.23.23-.15-.09-.03-.12-.06-.03-.03.03v.87l-.06.03-.35-.23h-.15l-.09-.46-.2-.23-.32.2v.03l-.06.09.03.17.14.09.15-.06-.03-.09.09-.09.29.55.17.03.09.2.23.06.64-.61h.03v-.03h.26l.32-.26v-.03h.03v-.03l.06-.06.09.06.09-.03v-.15l-.12-.12v-.06l.26-.23ZM226.63,122.13l-.12-.12-.32-.52-.14-.03-.06.09.35.52.14.06-.06.15.03.12.17-.09v-.17ZM226.13,122.94l-.03-.03-.06.03-.06.12.12.03.03-.14ZM226.66,121.26l-.12-.46.09-.06-.03-.09-.09-.03-.03.09-.17.14-.14-.06-.09.06-.06.17.03.06.06.03.12-.03.44.17ZM226.25,107.65h.09l.14-.03-.26-.06.03.09ZM226.25,114.27l.14.26h.23l-.2-.32h-.12l-.06.06ZM226.34,121.49l.12.03v-.06l-.06-.09-.09-.03.03.15ZM226.69,107.13l-.06-.09-.15.15.03.12-.03.03.12.03.09-.23ZM226.69,114.88l-.03.03.49.12.09.14.23.09.06-.03-.75-.58-.12.09.03.14ZM227.03,122.68l-.12-.06-.17.14.03.09.09.03.17-.09v-.12ZM227.18,107.3l-.06-.26h-.12l-.23.32.15.2.12-.06.14-.2ZM227,117.4l-.06.09.29.12v-.14l-.09-.09-.15.03ZM227.18,116.53l-.06-.09h-.06l-.03.03v.03h.03l.12.12v-.09ZM227.09,119.25l.29.2.17-.06-.09-.2-.23-.03-.15.09ZM227.24,116.91l-.12-.06.03.15.09-.03v-.06ZM227.27,118.27l-.06.15h.15l.03-.03h.03l.09-.12-.03-.06-.06-.03-.15.09ZM227.27,118.91l-.06.09.44.03-.38-.12ZM227.35,118.59l.12-.06v-.03l-.17.03.06.06ZM227.44,117.51l.09-.23-.06-.15h-.06l-.06.03.09.35ZM227.38,107.8l.06.14.09.09.12-.03.03-.15.06-.03-.06-.12-.23.03-.06.06ZM227.7,119.78h.09l.03-.03h.03l.06-.06-.52-.17.15.14h.03l.15.12ZM227.44,118.79l.06.12.09-.06-.03-.06h-.12ZM227.61,120.01h-.09l-.06.06v.06l.12.09.09-.03v-.09l-.06-.09ZM227.53,107.3l.09.17.09.03h.06v.03l.03-.03.03-.12-.09-.17-.2.09ZM227.61,117.78l.06.06.06-.03.03-.09-.09-.03-.06.03v.06ZM227.67,116.96l.09.09.06-.12-.06-.12h-.06l-.03.03v.12ZM227.73,118.44l-.06.2.2.12v-.17l-.03-.03-.03-.2.03-.03-.09-.09-.03.14-.03.03v.03h.03ZM227.9,119.46v.09l.23.32h.06l.03-.03v-.12l-.2-.15-.03-.14-.03-.03v-.09l-.06-.09-.12-.03-.09.03-.03.09.03.03v.06h.12v.03l.09.03ZM227.73,121.78l.09.03.06-.03.03-.12-.12-.12-.09.03-.03.12.06.09ZM227.73,115.05l.2.12.23-.03.09-.12-.09-.17-.09-.03-.06.09h-.12l-.09.06-.09.09ZM227.87,118.94l-.03-.03-.09.06v.03l.06.06.09-.06v-.06h-.03ZM227.85,107.88l.14-.03v-.06l-.09-.03-.06.12ZM228.11,117.8l-.17.06-.09.2h.03v.03h.03l.03.06h.75l-.06-.12-.52-.23ZM228.14,116.62l-.09-.03-.12.03.09.09h.09l.03-.06v-.03ZM228.14,117.54l-.06.09h.12v-.03l.03-.03-.03-.03h-.06ZM228.34,119.14h-.06l-.12.12h.15l.09-.06-.06-.06ZM229.82,119.23l-.35.58v.03l-.38.2-.67-.72-.15.06-.09.12v.03h-.03v.03l.2.26.15-.06.14.09-.2.32.12.29.15.03.06-.09-.06-.12.06-.12.61.09.12-.17.29-.03.03-.2v-.61ZM228.51,118.67l-.17-.38-.06.2.09.03-.03.2-.06.03.23-.09ZM228.6,117.49l.03.06.03.03.06-.06v-.06l-.03-.03-.09.06ZM228.77,118.91l-.17.2.35-.03.06-.38-.17-.17-.12.09.06.29ZM228.74,117.66l-.06-.03-.06.12.03.14.17.12.03-.09h.06l.03-.06-.06-.09h-.03l-.12-.12ZM229.01,120.59v-.09h-.09l-.06.09v.06l.15-.06ZM228.92,117.49l.09.12.12-.03.03-.03-.03-.12-.2-.06v.12ZM229.12,118.33h-.09l-.06.06h-.03v.03l-.03.03.38.43h.03l.03-.03-.23-.52ZM229.5,118.96l-.17.15-.35.41.12.12.29-.03.17-.41-.06-.23ZM229.35,117.28l.09.03.03-.09-.03-.06-.06.03-.03.09Z"/>
    </g>
  </g>
</svg>